<?xml version="1.0" standalone="no"?>
<!DOCTYPE svg PUBLIC "-//W3C//DTD SVG 1.1//EN" "http://www.w3.org/Graphics/SVG/1.1/DTD/svg11.dtd" >
<svg xmlns="http://www.w3.org/2000/svg">
<metadata>
This is a custom SVG webfont generated by Font Squirrel.
</metadata>
<defs>
<font id="OliJoRegular" horiz-adv-x="1382" >
<font-face units-per-em="2048" ascent="1638" descent="-410" />
<missing-glyph horiz-adv-x="454" />
<glyph unicode=" "  horiz-adv-x="454" />
<glyph unicode="&#x09;" horiz-adv-x="454" />
<glyph unicode="&#xa0;" horiz-adv-x="454" />
<glyph unicode="!" horiz-adv-x="624" d="M45 1470l121 -1052h252l114 1052h-487zM63 176q-6 -92 58.5 -138t173.5 -42q104 -6 166.5 40t56.5 138q6 92 -59.5 135t-175.5 39q-100 4 -162 -41t-58 -131z" />
<glyph unicode="&#x22;" horiz-adv-x="995" d="M0 1300q-2 -39 10.5 -71.5t35 -57t54 -38t68.5 -11.5q10 0 2 -1l-8 -1l-16 -11q-15 -11 -83 -34l-32 -10l61 -182l27 4q332 49 336 364q0 113 -62.5 176.5t-177.5 59.5q-98 4 -158.5 -45.5t-56.5 -141.5zM463 1300q-2 -39 10 -71.5t34.5 -57t54.5 -38t69 -11.5q10 0 3 -1 l-7 -1l-17 -11q-16 -11 -86 -34l-30 -10l61 -182l27 4q332 49 336 364q0 113 -62.5 176.5t-177.5 59.5q-98 4 -158.5 -45.5t-56.5 -141.5z" />
<glyph unicode="$" horiz-adv-x="1075" d="M-10 80l26 -8q51 -16 91 -26.5t80 -20t83 -16.5t99 -15v-162h180v162q211 41 318.5 156.5t105.5 302.5q0 125 -54.5 212t-183.5 175l-200 135q-47 31 -73 52.5t-39 37.5t-16.5 33.5t-5.5 42.5q2 59 40 95t110 38q-2 0 21.5 -5t59.5 -12.5t80 -15.5t81.5 -15t65.5 -13.5 t32 -6.5l37 -8v199l-70 28q-59 25 -97 34t-66.5 12.5t-55.5 4.5t-66 7v157h-180v-157q-86 -12 -140 -36t-103 -65q-70 -61 -108 -146t-38 -187q0 -66 13.5 -119t44 -101.5t79.5 -93.5t117 -92l174 -121l90 -63q53 -37 53 -115q8 -43 -15 -64.5t-68.5 -29.5t-105.5 -5 t-124.5 12t-125 21.5t-105.5 20.5l-31 6z" />
<glyph unicode="%" horiz-adv-x="1673" d="M0 1165q0 -201 91 -318.5t261 -117.5q180 0 277.5 125t97.5 342q0 199 -91 316.5t-259 117.5q-182 0 -279.5 -124t-97.5 -341zM270 -37h205l760 1690h-205zM305 1104v156q0 72 3 111.5t11.5 60t19.5 24.5t28 6q12 2 21 -3t17.5 -25.5t12.5 -61.5t4 -112v-156 q0 -76 -4 -118t-10.5 -61.5t-15.5 -23.5t-21 -4q-16 0 -28.5 6t-21 26.5t-12.5 61.5t-4 113zM778 422q0 -203 91.5 -319.5t260.5 -116.5q180 0 277.5 125t97.5 342q0 199 -91 316.5t-259 117.5q-182 0 -279.5 -124t-97.5 -341zM1083 360v156q0 72 3.5 112t11.5 60.5t19 24.5 t28 6q12 2 22.5 -2t17.5 -24.5t11 -61.5t4 -115v-156q0 -76 -4 -117.5t-10 -61t-15.5 -23.5t-21.5 -4q-16 0 -28.5 6t-20.5 26.5t-12.5 61t-4.5 112.5z" />
<glyph unicode="&#x26;" horiz-adv-x="1566" d="M0 375q2 -186 145.5 -288.5t386.5 -100.5q102 0 182.5 16t166.5 55l41 -49h546l-217 238h-2l-51 51q61 72 93 157t32 205v3v38h-268v-34v-35q0 -86 -23 -148l-266 308q125 63 193.5 154t68.5 208q0 80 -31.5 143.5t-90 106.5t-140.5 66.5t-180 23.5q-111 0 -199 -24.5 t-151.5 -72.5t-97.5 -118t-34 -160q0 -92 37 -171t127 -181v2l13 -14q-150 -72 -215.5 -159t-65.5 -220zM385 451q0 45 9 75.5t30 59.5l307 -361q-23 -6 -51.5 -10t-58.5 -4q-106 2 -170 66.5t-66 173.5zM479 1196q0 41 30 66.5t71 27.5q25 0 43 -11t30.5 -31.5t20.5 -45 t14 -49.5q16 -61 -6.5 -112.5t-52.5 -92.5l-54 62q-35 39 -53 62.5t-28.5 40.5t-12.5 35.5t-2 47.5z" />
<glyph unicode="'" horiz-adv-x="503" d="M0 1300q-2 -39 10.5 -71.5t35 -57t54 -38t68.5 -11.5q10 0 2 -1l-8 -1l-16 -11q-15 -11 -83 -34l-32 -10l61 -182l27 4q332 49 336 364q0 113 -62.5 176.5t-177.5 59.5q-98 4 -158.5 -45.5t-56.5 -141.5z" />
<glyph unicode="(" horiz-adv-x="503" d="M10 573q0 -225 57.5 -450t149.5 -430l8 -19h248l-10 41q-8 31 -13.5 57.5t-9.5 55.5t-8 63.5t-8 79.5v-2q-8 86 -13 161t-8.5 145.5t-5.5 139t-2 144.5q0 256 18.5 466t49.5 407l6 38h-242l-10 -18q-53 -94 -91 -200.5t-64.5 -220t-39 -229.5t-12.5 -229z" />
<glyph unicode=")" horiz-adv-x="503" d="M-18 1454l10 -41q8 -31 13 -57.5t9 -55t8.5 -63.5t8.5 -80v2q8 -86 13 -160.5t8 -144.5t5 -139.5t2 -145.5q0 -258 -18 -468t-49 -404l-6 -39h239l11 18q51 94 91 201t65.5 220.5t38.5 229t13 228.5q0 227 -50 456.5t-158 424.5l-11 18h-243z" />
<glyph unicode="*" horiz-adv-x="819" d="M-18 1272l239 -72l-231 -76l127 -217l178 166l-51 -239h260l-58 237l179 -164l129 226l-230 67l230 72l-129 219l-179 -158l58 230h-260l51 -232l-176 160z" />
<glyph unicode="+" horiz-adv-x="1048" d="M2 510h340v-330h260v330h344v260h-344v354h-260v-354h-340v-260z" />
<glyph unicode="," horiz-adv-x="503" d="M0 186q-2 -39 10.5 -71.5t35 -56t54 -37t68.5 -11.5l-105 -47l-32 -10l61 -182l27 4q164 25 249 116t87 246q0 111 -62.5 172.5t-175.5 61.5q-100 0 -160.5 -47.5t-56.5 -137.5z" />
<glyph unicode="-" horiz-adv-x="555" d="M6 477h490v328h-490v-328z" />
<glyph unicode="." horiz-adv-x="503" d="M0 178q-8 -98 55.5 -148t173.5 -44q111 -8 172.5 44t53.5 154q6 92 -55.5 142.5t-163.5 44.5q-115 6 -179.5 -43.5t-56.5 -149.5z" />
<glyph unicode="/" horiz-adv-x="483" d="M-18 -160h256l215 1796h-256z" />
<glyph unicode="0" horiz-adv-x="1236" d="M10 709q0 -170 35 -306.5t101.5 -231.5t164 -146.5t224.5 -51.5q139 0 245.5 54.5t179 156t109.5 248t37 330.5q0 170 -35 306t-102.5 230.5t-165.5 144.5t-225 50q-139 0 -245 -53.5t-178.5 -154.5t-108.5 -246.5t-36 -329.5zM442 594v278q0 129 7.5 209t22.5 124 t37.5 59.5t51.5 13.5q29 2 50.5 -12.5t34.5 -57.5t20.5 -123.5t7.5 -212.5v-278q0 -135 -6 -215t-19.5 -122t-36 -55.5t-55.5 -13.5q-31 -2 -47 8.5t-27 26.5q-16 35 -28.5 132.5t-12.5 238.5z" />
<glyph unicode="1" horiz-adv-x="913" d="M-33 1085l275 43v-1124h409v1489h-213l-10 -6q-47 -29 -89 -52.5t-88 -47t-100.5 -46t-125.5 -49.5h-2l-56 -22v-185z" />
<glyph unicode="2" horiz-adv-x="1101" d="M8 8h985l45 318h-620l-27 -23q182 147 302 258t190.5 201t99.5 170t29 168q0 90 -34 162.5t-95.5 124t-147.5 79t-188 27.5q-80 0 -191.5 -9t-240.5 -52q-23 -8 -53 -16l-29 -7l82 -235l30 20l28 11q28 11 68 24.5t84 25t81 11.5h12h14q70 0 110 -49.5t40 -147.5 q0 -51 -9.5 -98t-31 -96.5t-57 -103.5t-87.5 -120h2q-92 -115 -190 -218t-189 -179l-12 -10v-236z" />
<glyph unicode="3" horiz-adv-x="1118" d="M-8 63l53 -10h-2q80 -18 143.5 -31.5t116.5 -20.5t96 -11t82 -4q111 0 206 32.5t166 91t113 138.5t42 174q2 133 -70 220t-207 128q55 23 94 53h-2q66 49 103 127t37 166q0 86 -32 156.5t-91.5 120t-142.5 75t-181 25.5q-84 0 -193.5 -16.5t-232.5 -44.5q-27 -6 -59 -16 l-33 -9l8 -238l51 25l33 12q33 12 80 25.5t101.5 25t99.5 11.5q39 0 70.5 -10.5t54 -33t35 -60.5t12.5 -95q0 -207 -195 -207h-172v-203h184q61 0 101.5 -11t65 -36.5t35.5 -67.5t13 -104q2 -117 -47 -175t-125 -58q-53 0 -114.5 13t-116.5 29.5t-96 32t-53 19.5l-31 12 v-250z" />
<glyph unicode="4" horiz-adv-x="1226" d="M-18 397h583v-393h375v393h170v295h-170v801h-278l-11 -10q-37 -37 -65.5 -73t-56 -75t-57.5 -80t-66 -86q-27 -33 -61 -74.5t-67.5 -84.5t-66.5 -83t-55 -69h2q-29 -37 -51.5 -61.5t-42 -45t-38 -41t-38.5 -46.5l-6 -9v-258zM268 692l297 379v-379h-297z" />
<glyph unicode="5" horiz-adv-x="1097" d="M-18 70l75 -19l170 -39h2q59 -12 118 -19t110 -7q113 0 209 38.5t166.5 109.5t111.5 167t41 207q0 117 -37 208t-109.5 152.5t-176 93t-234.5 29.5q-45 0 -80 -2t-76 -8l31 162h600l41 327h-870l-49 -739l41 6q53 8 96 13.5t102 3.5q82 -2 137.5 -16.5t89 -46.5t48 -85 t14.5 -135q2 -141 -48 -202.5t-136 -61.5q-47 0 -105.5 12t-110 28.5t-86.5 30.5l-36 13l-45 16z" />
<glyph unicode="6" horiz-adv-x="1220" d="M6 621q0 -152 37 -272t108.5 -204t174 -128t235.5 -44q119 0 219.5 37t171 102.5t110.5 159t40 207.5q0 100 -33 184.5t-93.5 143.5t-143 92t-183.5 33q-53 0 -101 -7t-102 -24q35 184 143.5 268t307.5 88h57q31 0 74 -10l33 -8l31 203l-29 8q-78 23 -145.5 33t-147.5 10 q-176 0 -317.5 -61.5t-240.5 -175t-152.5 -275t-53.5 -360.5zM426 565q0 18 2 50t2 71v2q18 4 33.5 6t34.5 0q57 -2 95 -12t59.5 -37t30.5 -74t9 -120q2 -80 -6 -133.5t-25.5 -85t-41 -44t-52.5 -12.5q-35 0 -61.5 15.5t-44 59.5t-26.5 119.5t-9 194.5z" />
<glyph unicode="7" horiz-adv-x="1101" d="M-2 1153h707q-16 -43 -37 -85t-50 -99q-31 -59 -62.5 -116.5t-70.5 -125.5t-88 -150l-114 -194q-39 -63 -68 -111.5t-53.5 -87.5t-46 -73.5t-45.5 -73.5l-33 -51h463l512 1239v245h-975z" />
<glyph unicode="8" horiz-adv-x="1193" d="M0 365q0 -92 38 -165t106.5 -123t166 -77t215.5 -27q125 0 226.5 31t172 88.5t109.5 140t39 185.5q0 119 -41 198.5t-90 125.5t-90 66l-41 19l32 29q32 29 70.5 74t70.5 102.5t32 114.5q0 82 -33 146.5t-93.5 109.5t-146.5 67.5t-192 22.5q-117 0 -210 -26.5t-159.5 -78 t-101.5 -127t-35 -171.5q0 -117 48 -202t163 -169q-133 -70 -194.5 -154.5t-61.5 -199.5zM362 362q-2 63 14.5 111.5t61.5 114.5l25 -19q78 -59 121 -92t62.5 -55.5t23.5 -44t6 -55.5q-4 -66 -38 -100t-110 -34q-88 0 -126 40t-40 134zM420 1180q2 55 30.5 80.5t94.5 29.5 q66 -4 97.5 -36.5t33.5 -114.5q2 -49 -11.5 -89t-48.5 -98q-61 41 -100 72t-60.5 56.5t-28.5 49t-7 50.5z" />
<glyph unicode="9" horiz-adv-x="1226" d="M2 991q0 -100 34 -183t94 -141.5t145 -90t190 -29.5q100 0 192 26q-33 -184 -138 -265t-310 -85h-59q-31 0 -74 4l-31 2l-29 -192l27 -8q68 -20 141.5 -31.5t163.5 -11.5q176 -2 315.5 57t235.5 171t147.5 271.5t51.5 360.5q0 311 -140.5 480t-414.5 167 q-121 0 -221.5 -36t-171 -101.5t-109.5 -158.5t-39 -206zM422 1022q-4 143 34 205.5t91 62.5q31 0 54.5 -15t40.5 -57t26.5 -113t9.5 -177q0 -10 -1 -51t-1 -86v-3v3l-23 -5q-23 -4 -47 -2q-53 2 -88 13.5t-56.5 38t-30.5 71.5t-9 115z" />
<glyph unicode=":" horiz-adv-x="559" d="M49 176q-8 -98 55.5 -147t174.5 -43q111 -8 172 44t53 152q6 94 -55.5 144.5t-163.5 44.5q-115 6 -179.5 -43.5t-56.5 -151.5zM49 1024q-8 -98 55.5 -148.5t174.5 -44.5q111 -8 172 43.5t53 153.5q6 94 -55.5 144.5t-163.5 44.5q-117 8 -180.5 -42.5t-55.5 -150.5z" />
<glyph unicode=";" horiz-adv-x="563" d="M49 186q-2 -39 10.5 -71.5t35 -56t54 -37t68.5 -11.5l-104 -47l-33 -10l61 -182l27 4q164 25 249 116t87 246q0 111 -62.5 172.5t-175.5 61.5q-100 0 -160.5 -47.5t-56.5 -137.5zM51 1024q-8 -98 55.5 -148.5t174.5 -44.5q111 -8 172 44.5t53 154.5q6 92 -55.5 142.5 t-163.5 44.5q-115 6 -179.5 -43.5t-56.5 -149.5z" />
<glyph unicode="&#x3c;" horiz-adv-x="669" d="M25 623l288 -443h265l-289 443l289 434h-263z" />
<glyph unicode="=" horiz-adv-x="1048" d="M-4 317h944v261h-944v-261zM2 707h944v260h-944v-260z" />
<glyph unicode="&#x3e;" horiz-adv-x="655" d="M-8 180h262l291 434l-289 443h-264l287 -443z" />
<glyph unicode="?" horiz-adv-x="964" d="M0 1391l55 -240l31 16l30 15q30 14 71.5 31.5t90 30.5t89.5 11q18 0 33.5 -6t24.5 -21.5t15 -45t6 -76.5q2 -66 -15 -128.5t-54 -139.5l-62 -127q-23 -47 -37 -98.5t-21 -94.5t-9 -72l-2 -28h256q0 4 6 30.5t23.5 69.5t48.5 76l129 143q170 193 170 369q0 86 -33 155.5 t-91.5 119t-140.5 76t-176 26.5q-72 0 -155.5 -8.5t-202.5 -53.5zM139 166q-6 -92 58.5 -138t173.5 -42q104 -6 166.5 41t56.5 139q4 90 -60.5 133t-175.5 39q-100 4 -161.5 -41t-57.5 -131z" />
<glyph unicode="@" horiz-adv-x="2002" d="M168 549q0 -172 65.5 -322.5t177 -263.5t263 -178.5t323.5 -65.5h-2v68q-158 0 -296 60.5t-241.5 164t-162.5 241.5t-59 296t59 296t162.5 241.5t243 163t296.5 59.5q158 0 296.5 -59.5t241.5 -163t162.5 -241.5t59.5 -296q0 -139 -46 -265t-126 -227h-127v803 q0 92 -21.5 152.5t-74.5 101.5v2q-96 76 -252 76q-51 0 -117.5 -8t-130.5 -25q-37 -10 -83 -21.5t-101 -27.5v2l-76 -31l12 -174l43 17l32 12q32 12 79 27.5t100.5 28t96.5 12.5q53 -2 86.5 -27t33.5 -98v-107l-163 -16h4q-106 -8 -184 -45t-129.5 -94.5t-76 -131 t-22.5 -155.5q0 -74 23.5 -139.5t66.5 -114.5t101.5 -77t128.5 -28q51 0 95 14.5t109 49.5q25 12 37 16l12 4v-65h373h142q4 0 13 5t11 7q94 111 146.5 252t52.5 295q0 172 -65.5 322.5t-177.5 262t-263.5 177t-323.5 65.5t-322.5 -65.5t-262 -177t-177 -262t-65.5 -322.5z M899 369q-2 70 32 127t118 75l36 9v-344q-12 -4 -22 -5h-23q-74 4 -107.5 36t-33.5 102z" />
<glyph unicode="A" horiz-adv-x="1331" d="M12 4h322l119 508h301l118 -508h445l-418 1466h-434zM504 702l102 406l11 -48q11 -48 28 -114.5t33 -134.5t27 -109h-201z" />
<glyph unicode="B" horiz-adv-x="1323" d="M74 4l479 4q86 0 147.5 4t109.5 14.5t87 28t80 43.5q80 53 125 135t45 186q0 124 -71 212q-73 90 -204 131q117 43 180 131q60 85 60 203q0 94 -34 167.5t-99 122.5q-33 25 -69 41.5t-80 25.5t-101 12t-133 3l-522 -2v-1462zM483 211v438h35q102 0 149.5 -50t47.5 -163 q-2 -125 -46 -175t-155 -50h-31zM483 852v416h31q102 0 143 -45t41 -160q0 -117 -44 -164t-152 -47h-19z" />
<glyph unicode="C" horiz-adv-x="1253" d="M6 684q0 -160 44 -290t126 -221t201 -140q114 -47 254 -47h12q45 0 88 4t91 12t106 23l131 32l78 21l8 201l-46 -12q-46 -11 -111.5 -24.5t-138.5 -24.5t-124 -11q-82 0 -136 33.5t-88 100.5t-48.5 163t-14.5 221q0 264 73 401.5t247 137.5q49 0 114.5 -10.5t125 -22.5 t100.5 -23l41 -10l-2 223l-70 13q-74 12 -125 21t-91 15.5t-71.5 9.5t-68.5 3q-158 0 -288 -58.5t-222 -164t-143.5 -253t-51.5 -323.5z" />
<glyph unicode="D" horiz-adv-x="1404" d="M119 4l426 4q174 2 293.5 43t216.5 142h-2q207 209 207 589q0 303 -144 496q-80 106 -200 150q-114 42 -297 43q-8 0 -17 -1l-483 -4v-1462zM528 233v1012h47q43 0 75 -6t54.5 -20.5t41 -39t34.5 -59.5q29 -59 45 -152q15 -83 15 -189v-27q0 -143 -17.5 -242.5 t-51.5 -161t-86 -88.5t-124 -27h-33z" />
<glyph unicode="E" horiz-adv-x="1210" d="M119 4l981 4v203h-572v438h439v203h-439v416h553v198h-962v-1462z" />
<glyph unicode="F" horiz-adv-x="1183" d="M119 4h409v658h471v190h-471v416h551v198h-960v-1462z" />
<glyph unicode="G" horiz-adv-x="1425" d="M55 692q0 -174 51.5 -311t155.5 -240q84 -84 188.5 -119.5t245.5 -35.5q51 0 101.5 4t102.5 12t110.5 21.5t126.5 31.5l82 23v639h-404v-508q-68 4 -107.5 15.5t-72.5 35.5v-2q-68 53 -109 172q-39 113 -39 276v17q2 283 90.5 411t276.5 130q45 0 108.5 -7.5t121 -17.5 t97.5 -18l40 -9l-2 205l-68 15l2 -2q-12 4 -31.5 8t-34.5 6h3q-47 10 -64.5 13t-26.5 5q-59 10 -116.5 15.5t-110.5 5.5q-162 0 -294 -57.5t-226 -162t-145.5 -251t-51.5 -320.5z" />
<glyph unicode="H" horiz-adv-x="1507" d="M119 4h409v645h299v-645h410v1462h-410v-579h-299v579h-409v-1462z" />
<glyph unicode="I" horiz-adv-x="720" d="M119 4h409v1462h-409v-1462z" />
<glyph unicode="J" horiz-adv-x="708" d="M-43 16l12 -6q4 -2 34 -17.5t85 -15.5h11q109 0 184 38q78 40 141 116v-2q59 68 82.5 158t23.5 225v954h-409v-1173q0 -37 -6 -57.5t-14.5 -30.5t-18.5 -12.5t-16 -2.5q-23 0 -49.5 13.5t-42 26t-17.5 14.5v-228z" />
<glyph unicode="K" horiz-adv-x="1468" d="M119 4h409v1462h-409v-1462zM473 739l393 -731l463 -4l-483 866l422 596h-348z" />
<glyph unicode="L" horiz-adv-x="1028" d="M78 0h936v428h-135l-52 -217h-340v1255h-409v-1466z" />
<glyph unicode="M" horiz-adv-x="1888" d="M119 4h248v1000l272 -996h283l274 989v-993h385v1462h-502l-215 -784l-215 784h-530v-1462z" />
<glyph unicode="N" horiz-adv-x="1468" d="M119 4h248v948l401 -944h434v1458h-248v-891l-387 891h-448v-1462z" />
<glyph unicode="O" d="M6 713q0 -170 42 -306.5t121 -232.5t192.5 -148.5t256.5 -52.5t259 56.5t196 159t123 248t43 323.5q0 166 -41 302t-119 231.5t-189.5 147.5t-252.5 52q-147 0 -264 -55.5t-198 -157.5t-125 -245.5t-44 -321.5zM426 723q0 152 14.5 270.5t40.5 184.5q35 90 131 90 q47 0 83 -23.5t53 -64.5q29 -63 44 -188.5t15 -289.5q0 -145 -12.5 -242.5t-37 -154.5t-60 -81.5t-83.5 -24.5q-45 0 -79.5 25.5t-59 86t-37 160.5t-12.5 252z" />
<glyph unicode="P" horiz-adv-x="1306" d="M119 4h409v576h88q135 0 229.5 22.5t166.5 75.5h2q84 63 130 159.5t46 206.5q0 96 -36 178.5t-103 139.5q-37 31 -78 51.5t-93.5 32.5t-120 16t-153.5 4h-487v-1462zM528 782v486h13q115 0 166 -54.5t51 -192.5q0 -124 -51 -180q-53 -58 -164 -59h-15z" />
<glyph unicode="Q" d="M6 713q0 -170 42 -306.5t121 -232.5t192.5 -148.5t256.5 -52.5t259 56.5t196 159t123 248t43 323.5q0 166 -41 302t-119 231.5t-189.5 147.5t-252.5 52q-147 0 -264 -55.5t-198 -157.5t-125 -245.5t-44 -321.5zM426 723q0 152 14.5 270.5t40.5 184.5q35 90 131 90 q47 0 83 -23.5t53 -64.5q29 -63 44 -188.5t15 -289.5q0 -145 -12.5 -242.5t-37 -154.5t-60 -81.5t-83.5 -24.5q-45 0 -79.5 25.5t-59 86t-37 160.5t-12.5 252zM596 -358l61 321l482 -94l-64 -322z" />
<glyph unicode="R" horiz-adv-x="1468" d="M119 4h409v602l342 -598l461 -4l-428 737q129 41 198 132q67 88 66 217q0 100 -34.5 174.5t-100.5 124.5h-2q-33 25 -69.5 39t-83 23t-104.5 12t-134 3h-520v-1462zM528 852v416h29q98 0 139 -44t41 -159q0 -119 -44 -166t-150 -47h-15z" />
<glyph unicode="S" horiz-adv-x="1075" d="M-4 80l67 -21q141 -43 245 -59t179 -16q104 0 193.5 34.5t155 97t103.5 147.5t38 183q0 66 -13.5 119t-43 99.5t-74.5 88.5t-109 85l-202 137q-43 29 -69 49t-39 36.5t-17.5 34t-4.5 47.5q0 60 48 96q49 38 114 38q43 0 98.5 -13.5t104.5 -29.5t83 -30l34 -13l45 -21v238 l-25 6q-135 35 -252.5 58.5t-195.5 23.5q-96 0 -179 -34t-143.5 -93t-94.5 -141t-34 -178q0 -63 14.5 -116.5t45 -102t79 -93.5t117.5 -94l174 -121q51 -35 80 -57.5t42 -39.5t16.5 -33.5t3.5 -41.5q2 -31 -13.5 -56.5t-40 -44t-56.5 -28.5t-64 -10q-53 0 -115 15.5t-116 35 t-91 35.5l-37 16l-51 27v-260z" />
<glyph unicode="T" horiz-adv-x="1179" d="M-8 1073h143l82 195h164v-1264h410v1264h163l80 -195h144v397h-1186v-397z" />
<glyph unicode="U" horiz-adv-x="1468" d="M119 489q0 -76 7 -135t25.5 -107t47 -87t71.5 -74q76 -61 170.5 -86t235.5 -27h15q249 0 378 131q133 135 133 392v970h-305v-1017q0 -47 -2 -77t-8 -49.5t-15.5 -33t-23.5 -25.5q-25 -20 -58 -32q-29 -10 -72 -9h-16q-49 2 -82.5 12.5t-54 35t-29 66.5t-8.5 109v1020 h-409v-977z" />
<glyph unicode="V" horiz-adv-x="1298" d="M27 1466l405 -1458h438l443 1458h-303l-287 -1071l-14 60q-14 59 -37 153t-51.5 210t-55 227.5t-50 209t-38 152.5t-14.5 59h-436z" />
<glyph unicode="W" horiz-adv-x="1794" d="M39 1466l301 -1458h385l160 772l153 -772h392l352 1458h-287l-195 -929l-184 933h-323l-195 -931l-174 927h-385z" />
<glyph unicode="X" horiz-adv-x="1355" d="M-43 1466l453 -753l-449 -709h332l244 479l264 -479h461l-471 813l389 649h-285l-233 -430l-250 430h-455z" />
<glyph unicode="Y" horiz-adv-x="1263" d="M-20 1466l471 -891v-571h397v617l436 845h-276l-277 -589l-258 589h-493z" />
<glyph unicode="Z" horiz-adv-x="1161" d="M-12 8h1067v420h-129l-84 -217h-393l587 1059v200h-1013v-397h118l78 195h350l-581 -1043v-217z" />
<glyph unicode="[" horiz-adv-x="606" d="M59 -281h500v226h-137v1290h137v225h-500v-1741z" />
<glyph unicode="\" horiz-adv-x="483" d="M-18 1636l215 -1796h256l-215 1796h-256z" />
<glyph unicode="]" horiz-adv-x="606" d="M-14 -55v-226h499v1741h-499v-225h137v-1290h-137z" />
<glyph unicode="_" horiz-adv-x="870" d="M-16 -293v-115h909v115h-909z" />
<glyph unicode="`" horiz-adv-x="0" d="M-489 1628l438 -375h272l-258 375h-452z" />
<glyph unicode="a" horiz-adv-x="1165" d="M-8 344q0 -74 24.5 -139.5t66.5 -114.5t100.5 -76.5t127.5 -27.5q51 0 95.5 14t109.5 49h2q23 12 35 17l12 4v-66h373v870q0 92 -21.5 152.5t-74.5 101.5v2q-96 76 -252 76q-51 0 -117.5 -8t-130.5 -24q-37 -10 -83 -21.5t-101 -28.5v2l-76 -30l10 -174l43 16l33 12 q33 12 79 27.5t99 28t96 12.5q53 -2 87 -26.5t34 -98.5v-107l-162 -16h2q-104 -8 -182 -45t-129 -94.5t-75.5 -131t-24.5 -155.5zM377 383q0 70 32.5 127t116.5 76l37 8v-344q-10 -4 -20 -4h-23q-74 4 -107.5 35.5t-35.5 101.5z" />
<glyph unicode="b" horiz-adv-x="1280" d="M59 51l72 -12l182 -33q55 -10 113.5 -15t108.5 -5q135 0 246.5 50t192.5 139t125 213t44 269q0 119 -30 221.5t-83 177t-128 119t-167 44.5q-33 0 -62.5 -5.5t-63.5 -16.5t-73.5 -29.5t-93.5 -47.5h-2l17 10v588l-398 -65v-1602zM457 203v743h20q123 -4 183.5 -87 t62.5 -279q0 -190 -67.5 -282.5t-184.5 -94.5h-14z" />
<glyph unicode="c" horiz-adv-x="1015" d="M0 551q0 -125 35 -228.5t99.5 -179t155.5 -116.5t202 -41q78 0 177 19.5t253 64.5l28 8l-32 194l-25 -4q-25 -4 -57.5 -9t-65.5 -9t-51 -4q-141 2 -219 98t-80 289q0 94 5 164.5t22.5 119t50 72t86.5 23.5q41 0 102.5 -11.5t117.5 -24.5t97 -24l41 -10l-6 213l-27 6 q-106 25 -189 35t-147 10q-127 0 -232 -49t-181 -136t-118 -208t-42 -262z" />
<glyph unicode="d" horiz-adv-x="1335" d="M0 539q0 -117 29.5 -218.5t85 -176t132.5 -116.5t169 -42q49 0 97 14t87 30.5t63 30.5l23 15v-72h397v1718l-397 -65v-463q-29 8 -54.5 10t-56.5 2q-129 0 -234 -49t-182 -138t-118 -212t-41 -268zM420 614q0 199 66.5 291t183.5 94q8 0 16 -2v-747q-10 -4 -18 -4h-25 q-104 2 -163.5 88.5t-59.5 279.5z" />
<glyph unicode="e" horiz-adv-x="1114" d="M0 555q0 -127 36 -231.5t102.5 -180t158.5 -116.5t207 -41q63 0 127.5 8t163.5 33l123 30l71 17l-31 198l-32 -6q-68 -12 -108 -16t-79 -4q-147 4 -231 79.5t-107 235.5l603 66v71q0 82 -7.5 138.5t-21.5 98.5t-39 74.5t-57 67.5q-59 66 -143.5 97.5t-182.5 31.5 q-127 0 -228.5 -47t-174 -133t-111.5 -207t-39 -264zM397 743v9q0 154 33 210q32 54 86 54h4q25 0 43.5 -8.5t30.5 -32t18 -64.5t6 -106v-31z" />
<glyph unicode="f" horiz-adv-x="731" d="M-14 956h125v-952h397v952h172v238h-172v117q0 45 2 69.5t8 37t17.5 15.5t27.5 5q51 0 88 -17.5t84 -29.5v188q-41 6 -95 22.5t-95 16.5q-78 0 -153 -23.5t-134 -66.5q-80 -55 -115 -137q-33 -77 -33 -192q0 -7 1 -13v8h-125v-238z" />
<glyph unicode="g" horiz-adv-x="1236" d="M-68 -131q2 -74 44 -132.5t113 -99t166 -63.5t204 -23q137 0 256 36t206 100.5t137 155.5t50 200q0 127 -80 205v2q-47 45 -107.5 60.5t-164.5 15.5h-273q-37 0 -54 2t-23.5 5t-6.5 7q0 6 -2 14v13q0 6 4 16q41 -8 91 -8q102 0 190 28.5t152.5 81t100.5 125t36 162.5 q0 100 -47 182l229 -67v250h-389q-63 37 -131 53t-152 16q-104 0 -192 -30.5t-152.5 -88t-100.5 -136.5t-36 -173q0 -242 219 -342q-45 -39 -75.5 -68.5t-50 -55t-28 -50t-8.5 -53.5q0 -66 56 -125q-53 -35 -88 -60.5t-55.5 -50t-29 -49t-8.5 -55.5zM247 -62q9 22 16 37 t9 17l97 -6h297q43 0 64.5 -2t31.5 -8.5t11 -16.5t5 -27q2 -27 -18.5 -54.5t-60.5 -50t-96 -36.5t-124 -14q-55 0 -100 11t-78 29.5t-49 41.5q-15 20 -15 40q1 17 10 39zM362 872q2 82 27 111t78 33h6q24 0 44 -16q24 -17 41 -54t27.5 -95t10.5 -140q-2 -86 -25.5 -114 t-78.5 -32h-6q-24 0 -45 16q-24 17 -41 55t-27.5 96t-10.5 140z" />
<glyph unicode="h" horiz-adv-x="1392" d="M119 4h397v928q16 2 31.5 4t32.5 0q51 -4 81.5 -10t48 -26.5t22.5 -61.5t5 -113v-721h398v780q0 197 -83 311q-81 112 -233 111h-6q-27 0 -49.5 -3t-48 -9t-54 -17.5t-67.5 -27.5q-23 -10 -41 -19l-37 -16v600l-397 -65v-1645z" />
<glyph unicode="i" horiz-adv-x="708" d="M88 1444q-1 -8 0 -16q0 -80 58 -121q57 -40 150 -40q13 0 26 1q12 -1 23 -1q88 0 142 42q56 43 56 121v16q1 8 0 16q0 80 -59 120q-57 39 -148 39q-13 0 -27 -1h-17q-92 0 -149 -41q-56 -41 -55 -119q-1 -8 0 -16zM123 4h397v1217l-397 -54v-1163z" />
<glyph unicode="j" horiz-adv-x="641" d="M-199 -408l23 -8q57 -23 106.5 -28t102.5 -5q193 0 319 113q86 74 121 174.5t35 247.5v1137l-397 -64v-1354q0 -18 -12.5 -29.5t-28 -17.5t-27.5 -7t-14 -1q-80 0 -131.5 16.5t-69.5 30t-21 15.5zM76 1444q-1 -8 -1 -16q0 -80 59 -121q57 -40 149 -40q13 0 26 1 q12 -1 24 -1q88 0 142 42q56 43 56 121q0 8 -1 16q1 10 1 20q0 77 -57 116t-150 39q-13 0 -27 -1h-17q-92 0 -149 -41q-56 -41 -56 -119q0 -8 1 -16z" />
<glyph unicode="k" horiz-adv-x="1388" d="M119 4h397v1710l-397 -59v-1651zM465 635l338 -627l489 -4l-452 750l348 434h-311z" />
<glyph unicode="l" horiz-adv-x="704" d="M119 4h397v1706l-397 -63v-1643z" />
<glyph unicode="m" horiz-adv-x="2082" d="M123 4h397v926q14 2 26.5 4t33.5 0q51 -4 82.5 -11.5t49 -29t23.5 -62t6 -110.5v-717h398v844q0 45 -6 82q14 4 26 5t29 -1q51 -4 85 -12.5t52 -30t25.5 -61t7.5 -105.5v-721h397v782q0 123 -23.5 201t-82.5 133q-47 43 -106.5 64.5t-127.5 21.5q-147 0 -364 -108 q-53 57 -107 84q-49 25 -111 24h-10q-63 0 -130.5 -22.5t-172.5 -73.5v113l-397 -60v-1159z" />
<glyph unicode="n" horiz-adv-x="1378" d="M123 4h397v926q39 6 68 6q39 -2 66.5 -11.5t44 -32t23.5 -63.5t7 -106v-719h397v778q0 123 -23.5 201t-80.5 135q-88 88 -215 88q-51 0 -97 -12t-116 -47q-23 -10 -40 -18.5t-34 -16.5v109l-397 -50v-1167z" />
<glyph unicode="o" horiz-adv-x="1232" d="M0 578q0 -135 38 -245t109.5 -186.5t172 -118.5t227.5 -42q129 0 232.5 47t176 130t112.5 200.5t40 259.5q0 137 -38 246.5t-108.5 187.5t-172 119t-230.5 41t-231.5 -46.5t-175 -130.5t-112.5 -201.5t-40 -260.5zM410 616q0 123 7 199t24.5 117t43 55t62.5 14 q39 0 67.5 -17t48 -65.5t27.5 -133.5t8 -220q0 -121 -8 -194.5t-24.5 -113.5t-43 -54.5t-63.5 -14.5t-65.5 17.5t-47 65.5t-27.5 131t-9 214z" />
<glyph unicode="p" horiz-adv-x="1323" d="M109 -451h397v449q29 -6 53.5 -9t52.5 -3q127 0 233.5 50t183.5 138t120 209t43 262q0 121 -29.5 223.5t-84 178t-131.5 117.5t-171 42q-47 0 -87 -10t-109 -39q-23 -10 -40.5 -17t-33.5 -18v99l-397 -50v-1622zM506 201v743q8 2 26 2q119 -2 179.5 -87t60.5 -279 q0 -195 -67.5 -286t-190.5 -93h-8z" />
<glyph unicode="q" horiz-adv-x="1269" d="M2 537q0 -117 29.5 -217.5t85 -175t131.5 -116.5t168 -42q27 0 53.5 4t58 14t69.5 27.5t91 42.5v-529h397v1680l-280 -62q-66 23 -116 33t-109 10q-131 0 -237.5 -48t-182.5 -137t-117 -213t-41 -271zM422 606q0 201 66.5 293t189.5 94h10v-743q-12 -4 -22 -4h-21 q-104 0 -163.5 87t-59.5 273z" />
<glyph unicode="r" horiz-adv-x="956" d="M102 4h398v918q0 2 6 2q10 0 35.5 -1t57.5 -5.5t64.5 -13.5t61.5 -25l141 -82v381l-20 8q-29 12 -54.5 16t-52.5 4q-7 0 -13 1q-47 0 -84 -13q-42 -14 -99 -55l-43 -37v121l-398 -60v-1159z" />
<glyph unicode="s" horiz-adv-x="929" d="M-8 61l24 -6q121 -31 229.5 -50t178.5 -19q92 0 170 27.5t134 78.5t88 124t32 159q0 55 -12.5 101t-40 87t-72.5 80t-111 82l-137 88v2q-41 27 -62.5 42t-31.5 27.5t-12 25.5q-2 14 -3 37q0 38 33 60q35 24 82 23q39 0 89.5 -11t94.5 -23.5t74 -23.5l31 -11l45 -19 l-2 205l-74 16q-66 14 -116 22.5t-88.5 13.5t-69.5 6t-62 1q-88 0 -161.5 -24.5t-126 -70.5t-82 -112.5t-29.5 -146.5q0 -53 11.5 -97t37 -83t66.5 -77t100 -77l133 -90q51 -35 80 -56.5t43 -38t17.5 -29.5t3.5 -34q2 -20 -10.5 -37.5t-34 -31t-49 -20.5t-56.5 -7 q-43 0 -95 13.5t-98.5 29.5t-77.5 32l-32 15l-45 27z" />
<glyph unicode="t" horiz-adv-x="802" d="M-18 956h114v-692q0 -133 76 -208q72 -71 199 -71q7 0 14 1q25 0 45.5 2t43 5t51 9t71.5 16v2l84 23q12 2 39 10l26 8v193l-36 -4q-25 -4 -37.5 -5t-28.5 1q-51 2 -81 7t-45 17.5t-19 38t-4 70.5v577h251v238h-251v242h-170l-115 -164v2q-2 -2 -13.5 -16.5t-33 -33 t-43.5 -26.5l-137 -49v-193z" />
<glyph unicode="u" horiz-adv-x="1361" d="M102 414q0 -127 21.5 -203t81.5 -131v-2q88 -82 207 -82q27 0 54.5 4t61 13.5t77.5 26.5t106 44v-80h395v1219l-395 -60v-893q-16 -2 -27.5 -3t-28.5 1q-53 4 -84.5 9.5t-47 23.5t-19.5 57t-4 113v752l-398 -64v-745z" />
<glyph unicode="v" horiz-adv-x="1232" d="M31 1200l331 -1192h377l336 1184h-272l-185 -750l-182 758h-405z" />
<glyph unicode="w" horiz-adv-x="1712" d="M41 1192l238 -1184h356l121 531l110 -531h363l270 1184h-268l-127 -670l-127 672h-303l-148 -649l-7 47q-7 47 -18.5 119.5t-23.5 156.5t-23.5 156t-18.5 120l-7 48h-387z" />
<glyph unicode="x" horiz-adv-x="1226" d="M-55 4h303l241 387l244 -387h426l-420 647l367 541h-281l-215 -352l-233 352h-430l407 -604z" />
<glyph unicode="y" horiz-adv-x="1204" d="M-18 1200l430 -1216q0 -2 -5.5 -19.5t-14.5 -43t-21 -44.5q-25 -37 -49.5 -58.5t-71.5 -37.5q-23 -7 -50 -7q-11 0 -22 1q-39 4 -73.5 12t-58.5 17l-23 10l-7 -232l25 -5q25 -5 58.5 -10t69.5 -10.5t56 -5.5h16q143 0 227 72q89 76 148 242l474 1331h-265l-211 -657 l-17 49q-17 49 -43 122.5t-55.5 159.5t-55 159t-43.5 122l-17 49h-401z" />
<glyph unicode="z" horiz-adv-x="1062" d="M-18 8h936v410h-125l-88 -207h-320l533 780v203h-902v-363h125l68 160h285l-512 -760v-223z" />
<glyph unicode="|" horiz-adv-x="1579" d="M66 1409q-8 -96 42 -148.5t150 -46.5q98 -6 148.5 46.5t44.5 144.5q8 90 -43.5 141t-153.5 45q-94 4 -144 -46t-44 -136zM297 1319q0 33 33 33q35 0 35 -33q0 -14 -9.5 -24.5t-25.5 -10.5q-14 0 -23.5 10.5t-9.5 24.5zM379 -182q0 -111 83 -169.5t220 -58.5 q135 0 218 57.5t83 170.5q0 111 -82 169t-219 58t-220 -58t-83 -169zM430 133l12 -6q4 -2 34 -17.5t85 -15.5q117 -2 195 38t141 116v-2q59 68 83 158t24 225v954h-410v-1173q0 -37 -6 -57.5t-14.5 -31t-18.5 -12.5t-16 -2q-23 0 -49.5 13.5t-42 25.5t-17.5 14v-227z M616 -184q4 45 17.5 59t48.5 19q33 -2 46 -17.5t17 -58.5q-4 -41 -19 -56.5t-50 -19.5q-33 4 -44.5 16.5t-15.5 57.5zM1116 1409q-6 -94 43 -147.5t152 -47.5q98 -6 147 46.5t43 144.5q8 92 -44 142t-152 44q-94 4 -144.5 -46t-44.5 -136zM1368 1325q0 33 33 33q35 0 35 -33 q0 -14 -9.5 -24.5t-25.5 -10.5q-14 0 -23.5 10.5t-9.5 24.5z" />
<glyph unicode="~" horiz-adv-x="1613" d="M70 1149q-8 -96 42 -148.5t150 -46.5q98 -6 148.5 46.5t44.5 144.5q8 90 -43.5 141t-153.5 45q-94 4 -144 -46t-44 -136zM303 1251q0 14 9.5 24.5t23.5 10.5q16 0 25.5 -10t9.5 -25q0 -14 -9.5 -24t-25.5 -10q-14 0 -23.5 10t-9.5 24zM408 -299q0 -111 82.5 -169 t220.5 -58q135 0 218 57t83 170q0 111 -83 169t-218 58q-137 0 -220 -58t-83 -169zM500 250h256l215 1386h-256zM645 -301q4 45 17.5 59.5t48.5 18.5q33 -2 46 -17.5t17 -58.5q-4 -41 -19.5 -56.5t-49.5 -19.5q-33 4 -44.5 16.5t-15.5 57.5zM1120 1149q-6 -94 43 -147.5 t152 -47.5q98 -6 147 46.5t43 144.5q8 92 -44 142t-152 44q-94 4 -144.5 -46t-44.5 -136zM1325 1235q0 14 9 24.5t24 10.5q16 0 25.5 -10.5t9.5 -24.5t-9.5 -24.5t-25.5 -10.5q-14 0 -23.5 10.5t-9.5 24.5z" />
<glyph unicode="&#xa1;" horiz-adv-x="628" d="M31 8h487l-121 1051h-252zM45 1300q-4 -90 60.5 -133t175.5 -39q98 -4 160.5 41t58.5 131q6 92 -58.5 138.5t-173.5 42.5q-104 6 -166.5 -41.5t-56.5 -139.5z" />
<glyph unicode="&#xa2;" horiz-adv-x="1015" d="M0 561q0 -166 48 -274.5t113.5 -167t135.5 -86t114 -32.5t48 -5v-189h168v205l28 5q29 5 73 14.5t96.5 22t99.5 26.5l26 8l-32 195l-33 -7q-55 -10 -93 -15t-73 -5q-141 2 -219 98.5t-80 288.5q-2 176 44 269.5t120 107.5q4 0 30.5 -1t69.5 -5t74 -10q33 -6 74.5 -20.5 t67.5 -25t30 -12.5l6 221l-27 7q-49 10 -99 18t-91 13t-67 8l-25 4v153h-168v-164q-104 -20 -189.5 -77.5t-146 -141.5t-92 -192.5t-31.5 -233.5z" />
<glyph unicode="&#xa3;" horiz-adv-x="1216" d="M-25 143l121 -166l27 21q53 41 80.5 54.5t56.5 13.5q35 0 90 -13v-2l150 -37l162 -39h2q29 -6 61.5 -10t62.5 -4q53 0 96.5 18.5t80 60.5t70.5 107.5t71 159.5l10 27l-155 92l-19 -29q-25 -37 -41 -59.5t-31.5 -32.5t-34 -14t-44.5 -4q-23 -2 -58 3t-61 11l-88 18 q-35 6 -80 7q12 16 18 27.5t9.5 21.5t6.5 19t7 24q8 27 12 36t5 22t0 40t-1 86v35h252v225h-252v230q0 53 7 85.5t21.5 51t37 27t53.5 14.5q4 2 12 3t2 -1q43 0 96.5 -13.5t100.5 -31t80 -31.5l33 -14l47 -17l2 250q-2 0 -17.5 4t-36 10.5t-26.5 6.5q-59 12 -96 19t-48 9 q-104 18 -200 19q-86 0 -165 -23.5t-145 -64.5q-92 -59 -129.5 -154.5t-37.5 -247.5v-131h-138v-225h138v-178q0 -55 -5.5 -92t-21.5 -67t-47 -60.5t-80 -75.5z" />
<glyph unicode="&#xa4;" horiz-adv-x="1542" d="M70 518h151q20 -125 72.5 -223t132.5 -168t185.5 -105.5t234.5 -35.5q45 0 88 4t91 12t105 23l132 32l77 21l9 201l-46 -12q-46 -11 -112 -24.5t-138.5 -24.5t-123.5 -11q-125 0 -188.5 79t-86.5 232h576l18 203h-606v4q0 25 1 48.5t1 45.5h619l18 201h-606 q33 121 101.5 182.5t185.5 61.5q49 0 114.5 -10.5t125 -22.5t99.5 -23l41 -10l-2 223l-69 13q-74 12 -125 21t-90 15.5t-72 9.5t-70 3q-117 0 -218 -32t-184 -92.5t-145.5 -146.5t-101.5 -192h-143l-19 -201h115q-6 -49 -6 -98h-125z" />
<glyph unicode="&#x20ac;" horiz-adv-x="1542" d="M70 518h151q20 -125 72.5 -223t132.5 -168t185.5 -105.5t234.5 -35.5q45 0 88 4t91 12t105 23l132 32l77 21l9 201l-46 -12q-46 -11 -112 -24.5t-138.5 -24.5t-123.5 -11q-125 0 -188.5 79t-86.5 232h576l18 203h-606v4q0 25 1 48.5t1 45.5h619l18 201h-606 q33 121 101.5 182.5t185.5 61.5q49 0 114.5 -10.5t125 -22.5t99.5 -23l41 -10l-2 223l-69 13q-74 12 -125 21t-90 15.5t-72 9.5t-70 3q-117 0 -218 -32t-184 -92.5t-145.5 -146.5t-101.5 -192h-143l-19 -201h115q-6 -49 -6 -98h-125z" />
<glyph unicode="&#xa5;" horiz-adv-x="1413" d="M-20 1466l315 -596h-178v-208h289l45 -87v-18h-342v-209h342v-344h397v344h321v209h-321v64l20 41h310v208h-201l307 596h-276l-277 -589l-258 589h-493z" />
<glyph unicode="&#xa7;" horiz-adv-x="1075" d="M0 553q0 -109 50 -187.5t165 -156.5l213 -146l68 -46q23 -15 32 -26t9 -22q0 -12 2 -35q-4 -35 -20.5 -57t-45.5 -22q-31 0 -46 29.5t-22.5 64.5t-8.5 64l-1 30h-293v-334l27 -6q111 -27 189.5 -37t140.5 -10q92 0 169 25.5t133 73.5t87 116t31 149q0 86 -30 153t-95 120 q111 59 163 139t52 191q0 106 -53.5 189t-161.5 157l-193 131q-51 35 -76.5 54.5t-37 31.5t-12.5 23.5t-3 29.5q4 35 20.5 56.5t45.5 21.5q27 0 42 -28.5t23 -63.5t9 -64l1 -28h293v329l-24 6q-121 31 -192.5 40.5t-131.5 9.5q-92 0 -169 -26t-131 -74t-85 -116.5 t-31 -152.5q0 -82 28 -141.5t93 -118.5q-63 -37 -106 -74t-68.5 -76t-37 -85t-11.5 -101zM352 670q0 29 6.5 48t22.5 46l127 -100q37 -29 59.5 -49.5t32.5 -37t14 -34t4 -41.5q-2 -29 -7 -47.5t-21 -40.5l-21 16q-20 16 -45.5 34.5t-47.5 35.5l-21 16q-33 25 -53.5 43.5 t-31 34.5t-14.5 34.5t-4 41.5z" />
<glyph unicode="&#xa8;" horiz-adv-x="0" d="M-334 1440q-4 -86 41 -140.5t125 -50.5q82 -4 127 51.5t41 143.5q6 88 -40 142t-128 48q-82 6 -127 -49t-39 -145zM33 1440q-4 -86 41 -140.5t125 -50.5q41 -2 72.5 15.5t54 48t33 71.5t8.5 84q6 88 -40 130t-128 36q-82 6 -127 -49t-39 -145z" />
<glyph unicode="&#xa9;" horiz-adv-x="1282" d="M27 1087q0 -121 45 -225t123.5 -183t183 -124t225.5 -45q119 0 224.5 45t184.5 124t124 183.5t45 224.5q0 119 -45 224.5t-124 183.5t-184.5 124t-224.5 46q-121 0 -225.5 -46t-183 -124t-123.5 -183.5t-45 -224.5zM72 1087q0 111 42 207.5t113.5 169t169 114.5t207.5 42 q111 0 208 -42t169 -114.5t114 -169t42 -207.5t-42 -208t-114 -168.5t-169 -113.5t-208 -42t-208 42t-168.5 113.5t-113.5 168.5t-42 208zM326 1102q-2 -141 73.5 -224t206.5 -83q39 0 78 7t104 25l35 9l2 88l-20 -5q-20 -5 -49 -10.5t-60.5 -10.5t-54.5 -5 q-72 0 -98.5 58.5t-26.5 168.5q0 117 31 177.5t108 60.5q27 0 69 -7.5t68.5 -13.5t30.5 -8v98l-30 5q-66 12 -95.5 17t-62.5 5q-141 0 -225 -97t-84 -255z" />
<glyph unicode="&#xaa;" horiz-adv-x="1165" d="M-8 344q0 -74 24.5 -139.5t66.5 -114.5t100.5 -76.5t127.5 -27.5q51 0 95.5 14t109.5 49h2q23 12 35 17l12 4v-66h373v870q0 92 -21.5 152.5t-74.5 101.5v2q-96 76 -252 76q-51 0 -117.5 -8t-130.5 -24q-37 -10 -83 -21.5t-101 -28.5v2l-76 -30l10 -174l43 16l33 12 q33 12 79 27.5t99 28t96 12.5q53 -2 87 -26.5t34 -98.5v-107l-162 -16h2q-104 -8 -182 -45t-129 -94.5t-75.5 -131t-24.5 -155.5zM377 383q0 70 32.5 127t116.5 76l37 8v-344q-10 -4 -20 -4h-23q-74 4 -107.5 35.5t-35.5 101.5z" />
<glyph unicode="&#xab;" horiz-adv-x="720" d="M-23 623l105 -443h264l-104 443l104 434h-262zM287 623l102 -443h266l-104 443l104 434h-266z" />
<glyph unicode="&#xad;" horiz-adv-x="555" d="M6 477h490v328h-490v-328z" />
<glyph unicode="&#xae;" horiz-adv-x="1355" d="M88 1116q0 -121 45 -225.5t124 -183t183.5 -123.5t225.5 -45q119 0 224 45t184 123.5t124 183t45 225.5q0 119 -45 224.5t-124 183.5t-184.5 124t-223.5 46q-121 0 -225.5 -46t-183.5 -124t-124 -183.5t-45 -224.5zM133 1116q0 111 42 207t113.5 169t169 115t208.5 42 t208 -42t168.5 -115t113.5 -169t42 -207t-42 -208t-113.5 -168.5t-169 -113.5t-207.5 -42q-111 0 -208.5 42t-169 113.5t-113.5 168.5t-42 208zM459 834h180v264l149 -262l203 -2l-188 323q57 16 87 57t30 101q0 84 -60 127q-29 23 -66.5 29t-105.5 6h-229v-643zM639 1206 v183h12q43 0 61.5 -19.5t18.5 -69.5q0 -53 -19.5 -73.5t-66.5 -20.5h-6z" />
<glyph unicode="&#xaf;" horiz-adv-x="0" d="M-342 1307h686v252h-686v-252z" />
<glyph unicode="&#xb0;" horiz-adv-x="0" d="M-299 1442q0 -111 83 -169.5t220 -58.5q135 0 218 57.5t83 170.5q0 111 -83 169t-218 58q-137 0 -220 -58t-83 -169zM-61 1440q4 45 17 59t48 19q33 -2 46 -17.5t18 -58.5q-4 -41 -19.5 -56.5t-50.5 -19.5q-33 4 -44 16.5t-15 57.5z" />
<glyph unicode="&#xb2;" horiz-adv-x="1101" d="M8 8h985l45 318h-620l-27 -23q182 147 302 258t190.5 201t99.5 170t29 168q0 90 -34 162.5t-95.5 124t-147.5 79t-188 27.5q-80 0 -191.5 -9t-240.5 -52q-23 -8 -53 -16l-29 -7l82 -235l30 20l28 11q28 11 68 24.5t84 25t81 11.5h12h14q70 0 110 -49.5t40 -147.5 q0 -51 -9.5 -98t-31 -96.5t-57 -103.5t-87.5 -120h2q-92 -115 -190 -218t-189 -179l-12 -10v-236z" />
<glyph unicode="&#xb3;" horiz-adv-x="1118" d="M-8 63l53 -10h-2q80 -18 143.5 -31.5t116.5 -20.5t96 -11t82 -4q111 0 206 32.5t166 91t113 138.5t42 174q2 133 -70 220t-207 128q55 23 94 53h-2q66 49 103 127t37 166q0 86 -32 156.5t-91.5 120t-142.5 75t-181 25.5q-84 0 -193.5 -16.5t-232.5 -44.5q-27 -6 -59 -16 l-33 -9l8 -238l51 25l33 12q33 12 80 25.5t101.5 25t99.5 11.5q39 0 70.5 -10.5t54 -33t35 -60.5t12.5 -95q0 -207 -195 -207h-172v-203h184q61 0 101.5 -11t65 -36.5t35.5 -67.5t13 -104q2 -117 -47 -175t-125 -58q-53 0 -114.5 13t-116.5 29.5t-96 32t-53 19.5l-31 12 v-250z" />
<glyph unicode="&#xb4;" horiz-adv-x="0" d="M-211 1253h272l439 375h-453z" />
<glyph unicode="&#xb5;" horiz-adv-x="2654" d="M119 4h248v1000l272 -996h283l274 989v-993h385v655l350 -651l463 -4l-483 866l422 596h-348l-404 -657v657h-502l-215 -784l-215 784h-530v-1462z" />
<glyph unicode="&#xb6;" horiz-adv-x="1306" d="M31 1044q0 -111 46 -207t130 -159h2q72 -53 166 -75.5t229 -22.5h88v-977h410v1863h-488q-86 0 -153.5 -4t-119.5 -16t-93 -32.5t-78 -51.5q-68 -57 -103.5 -139.5t-35.5 -178.5zM561 1014q0 -72 10.5 -127.5t23.5 -93t24.5 -57t13.5 -21.5l59 -60v766l-59 -118 q0 -2 -11.5 -20.5t-24.5 -55.5t-24.5 -90t-11.5 -123z" />
<glyph unicode="&#xb7;" horiz-adv-x="688" d="M25 737q-8 -125 68.5 -185t219.5 -54q143 -8 217 55t66 192q6 117 -67.5 178.5t-206.5 55.5q-150 6 -227.5 -53.5t-69.5 -188.5z" />
<glyph unicode="&#x2219;" horiz-adv-x="688" d="M25 737q-8 -125 68.5 -185t219.5 -54q143 -8 217 55t66 192q6 117 -67.5 178.5t-206.5 55.5q-150 6 -227.5 -53.5t-69.5 -188.5z" />
<glyph unicode="&#xb8;" horiz-adv-x="0" d="M-139 -248l39 -207l32 6q162 31 253 100.5t94 186.5q0 66 -41 110t-109 64v62h-215v-203l27 -6q23 -4 25.5 -9.5t4.5 -17.5q0 -20 -15 -37.5t-69 -38.5z" />
<glyph unicode="&#xb9;" horiz-adv-x="731" d="M88 1444q-6 -92 58.5 -137t175.5 -39q104 -6 165.5 41t55.5 137q6 92 -58.5 136t-175.5 38q-104 4 -165.5 -41t-55.5 -135z" />
<glyph unicode="&#xba;" horiz-adv-x="708" d="M-256 -406l70 -14q49 -10 83.5 -15t61.5 -8t49.5 -4.5t46.5 -1.5q236 0 369 154v-2q59 68 82.5 158t23.5 225v1380h-409v-1599q0 -37 -12.5 -57.5t-29 -30.5t-32.5 -12.5t-24 -2.5q-31 0 -78 6.5t-91 12.5t-76 12l-32 6z" />
<glyph unicode="&#xbb;" horiz-adv-x="720" d="M-8 180h262l106 434l-104 443h-264l102 -443zM301 180h262l107 434l-105 443h-264l102 -443z" />
<glyph unicode="&#xbc;" horiz-adv-x="1579" d="M379 -299q0 -111 83 -169t220 -58q135 0 218 57t83 170q0 111 -82 169t-219 58t-220 -58t-83 -169zM616 -301q4 45 17.5 59.5t48.5 18.5q33 -2 46 -17.5t17 -58.5q-4 -41 -19 -56.5t-50 -19.5q-33 4 -44.5 16.5t-15.5 57.5z" />
<glyph unicode="&#xbe;" d="M6 713q0 -270 100.5 -452.5t288.5 -250.5q-27 -27 -53.5 -55.5t-52.5 -65.5l-17 -22l181 -178l45 43q23 23 38 34t26 16t19.5 6t18.5 1q6 0 30.5 -5t43.5 -11l119 -41q53 -18 97 -29.5t79 -11.5q92 2 178 64.5t151 170.5l13 21l-181 184l-22 -27q-45 -53 -72.5 -68.5 t-58.5 -15.5h-10q-2 0 -6.5 1.5t-15.5 5.5t-32 12h-2l-8 4q164 86 249 272.5t87 444.5q0 166 -41 302t-119 231.5t-189.5 147.5t-252.5 52q-147 0 -264 -55.5t-198 -157.5t-125 -245.5t-44 -321.5zM426 723q0 152 14.5 270.5t40.5 184.5q35 90 131 90q47 0 83 -23.5 t53 -64.5q29 -63 44 -188.5t15 -289.5q0 -145 -12.5 -242.5t-37 -154.5t-60 -81.5t-83.5 -24.5q-45 0 -79.5 25.5t-59 86t-37 160.5t-12.5 252z" />
<glyph unicode="&#xbf;" horiz-adv-x="964" d="M-14 371q0 -84 32.5 -154t91 -119t139.5 -75.5t177 -26.5q72 0 152.5 13.5t207.5 47.5l82 23l-34 262l-48 -27q-2 0 -33.5 -15t-76.5 -33.5t-94.5 -33t-83.5 -12.5q-23 0 -38.5 6t-24.5 21.5t-13 44.5t-4 78q-2 66 15.5 128t53.5 140l62 127q23 47 37 83t22 66.5 t11.5 62.5t3.5 73v53h-261v-47q0 -27 -3 -47.5t-12 -40t-23.5 -40t-38.5 -46.5l-129 -144q-170 -188 -170 -368zM272 1313q-6 -92 59.5 -135t176.5 -39q98 -4 160.5 41t58.5 131q6 92 -58.5 138t-172.5 42q-104 6 -167 -40t-57 -138z" />
<glyph unicode="&#xc0;" horiz-adv-x="1480" d="M12 4h322l119 508h301l118 -508h445l-418 1466h-434zM182 1874l439 -375h272l-258 375h-453zM504 702l102 406l11 -48q11 -48 28 -114.5t33 -134.5t27 -109h-201z" />
<glyph unicode="&#xc1;" horiz-adv-x="1480" d="M12 4h322l119 508h301l118 -508h445l-418 1466h-434zM477 1491h273l438 375h-453zM504 702l102 406l11 -48q11 -48 28 -114.5t33 -134.5t27 -109h-201z" />
<glyph unicode="&#xc2;" horiz-adv-x="1480" d="M12 4h322l119 508h301l118 -508h445l-418 1466h-434zM274 1475h265l153 110l162 -110h266l-284 374h-283zM504 702l102 406l11 -48q11 -48 28 -114.5t33 -134.5t27 -109h-201z" />
<glyph unicode="&#xc3;" horiz-adv-x="1480" d="M12 4h322l119 508h301l118 -508h445l-418 1466h-434zM270 1628l150 -147l22 22l15 15q35 33 46 39t23 6q4 0 22.5 -4.5t29.5 -8.5h2l90 -30q41 -14 73.5 -22.5t61.5 -8.5q72 2 138.5 50t115.5 130l12 21l-143 151l-25 -26q-37 -41 -54.5 -51.5t-37.5 -10.5h-6h-6 q-2 0 -11 3l-24 9l-92 33q-78 29 -131 29q-129 -2 -254 -176zM504 702l102 406l11 -48q11 -48 28 -114.5t33 -134.5t27 -109h-201z" />
<glyph unicode="&#xc4;" horiz-adv-x="1347" d="M12 4h322l119 508h301l118 -508h445l-418 1466h-434zM346 1690q-4 -86 41 -140.5t125 -50.5q82 -4 127 51.5t41 143.5q6 88 -40 142t-128 48q-82 6 -127 -49t-39 -145zM504 702l102 406l11 -48q11 -48 28 -114.5t33 -134.5t27 -109h-201zM713 1690q-4 -86 41 -140.5 t125 -50.5q41 -2 72.5 15.5t54 48t33 71.5t8.5 84q6 88 -40 130t-128 36q-82 6 -127 -49t-39 -145z" />
<glyph unicode="&#xc5;" horiz-adv-x="1480" d="M12 4h322l119 508h301l118 -508h445l-418 1466h-434zM381 1716q0 -111 83 -169t220 -58q135 0 218 57.5t83 169.5q0 111 -83 169.5t-218 58.5q-137 0 -220 -58.5t-83 -169.5zM504 702l102 406l11 -48q11 -48 28 -114.5t33 -134.5t27 -109h-201zM618 1714q4 45 17.5 59.5 t48.5 18.5q33 -2 46 -17.5t18 -58.5q-4 -41 -19.5 -56t-50.5 -20q-33 4 -44.5 16.5t-15.5 57.5z" />
<glyph unicode="&#xc6;" horiz-adv-x="1947" d="M-33 0h303l291 649h221v-649h981l2 211h-573v438h498v203h-498v416h534l3 202h-1051zM643 852l139 319v-319h-139z" />
<glyph unicode="&#xc7;" horiz-adv-x="1253" d="M6 684q0 -137 32 -252t92 -204t148.5 -147t200.5 -81v-129l27 -6q23 -4 26 -9.5t5 -17.5q0 -20 -15.5 -37.5t-68.5 -38.5l-27 -10l39 -207l33 6q160 29 251 101t93 186q0 41 -24.5 77t-46 53.5t-26.5 19.5l26 3q26 3 62.5 8t79.5 12t80 16q29 6 65 19t56.5 21.5 t24.5 10.5l-15 246l-43 -21l-38 -15q-38 -15 -92 -32.5t-115.5 -33t-112.5 -15.5q-82 0 -136.5 34.5t-87 100.5t-47 162t-14.5 221q0 264 73 401.5t247 137.5q45 0 102.5 -8.5t107.5 -17.5t84 -17l33 -9h39l15 207l-72 15q-74 14 -125 23t-91 15.5t-73 8.5t-69 2 q-158 0 -287 -58.5t-221 -164t-143.5 -253t-51.5 -323.5z" />
<glyph unicode="&#xc8;" horiz-adv-x="1210" d="M59 1858l439 -375h272l-258 375h-453zM119 4l981 4v203h-572v438h439v203h-439v416h553v198h-962v-1462z" />
<glyph unicode="&#xc9;" horiz-adv-x="1210" d="M119 4l981 4v203h-572v438h439v203h-439v416h553v198h-962v-1462zM350 1491h273l438 375h-453z" />
<glyph unicode="&#xca;" horiz-adv-x="1210" d="M119 4l981 4v203h-572v438h439v203h-439v416h553v198h-962v-1462zM160 1475h264l154 110l161 -110h267l-285 374h-283z" />
<glyph unicode="&#xcb;" horiz-adv-x="1210" d="M119 4l981 4v203h-572v438h439v203h-439v416h553v198h-962v-1462zM215 1669q-4 -86 41 -140t125 -50q82 -4 127 51t41 143q6 88 -40 142.5t-128 48.5q-82 6 -127 -49.5t-39 -145.5zM582 1669q-4 -86 41 -140t125 -50q41 -2 72.5 15t54 48t33 72t7.5 84q6 88 -40 130 t-127 36q-82 6 -127 -49.5t-39 -145.5z" />
<glyph unicode="&#xcc;" horiz-adv-x="720" d="M-170 1858l438 -375h273l-258 375h-453zM119 4h409v1462h-409v-1462z" />
<glyph unicode="&#xcd;" horiz-adv-x="720" d="M117 1483h272l438 375h-452zM119 4h409v1462h-409v-1462z" />
<glyph unicode="&#xce;" horiz-adv-x="720" d="M-86 1483h264l154 110l162 -110h266l-285 375h-282zM119 4h409v1462h-409v-1462z" />
<glyph unicode="&#xcf;" horiz-adv-x="720" d="M-6 1669q-4 -86 41 -140t125 -50q82 -4 127 51t41 143q6 88 -40 142.5t-128 48.5q-82 6 -127 -49.5t-39 -145.5zM119 4h409v1462h-409v-1462zM360 1669q-4 -86 41 -140t125 -50q41 -2 73 15t54.5 48t32.5 72t8 84q6 88 -40 130t-128 36q-82 6 -127 -49.5t-39 -145.5z" />
<glyph unicode="&#xd1;" horiz-adv-x="1468" d="M119 4h248v948l401 -944h434v1458h-248v-891l-387 891h-448v-1462zM276 1620l150 -147l23 22l14 14q35 33 46 39t23 6q4 0 22.5 -4t29.5 -8h2l90 -31q41 -14 73.5 -22t61.5 -8q72 2 138.5 50t115.5 130l12 20l-143 152l-25 -27q-37 -41 -54 -51t-38 -10h-6h-6q-2 0 -10 3 l-25 9l-92 33q-78 29 -131 29q-129 -2 -254 -177z" />
<glyph unicode="&#xd2;" d="M6 713q0 -170 42 -306.5t121 -232.5t192.5 -148.5t256.5 -52.5t259 56.5t196 159t123 248t43 323.5q0 166 -41 302t-119 231.5t-189.5 147.5t-252.5 52q-147 0 -264 -55.5t-198 -157.5t-125 -245.5t-44 -321.5zM137 1874l438 -375h273l-258 375h-453zM426 723 q0 152 14.5 270.5t40.5 184.5q35 90 131 90q47 0 83 -23.5t53 -64.5q29 -63 44 -188.5t15 -289.5q0 -145 -12.5 -242.5t-37 -154.5t-60 -81.5t-83.5 -24.5q-45 0 -79.5 25.5t-59 86t-37 160.5t-12.5 252z" />
<glyph unicode="&#xd3;" d="M6 713q0 -170 42 -306.5t121 -232.5t192.5 -148.5t256.5 -52.5t259 56.5t196 159t123 248t43 323.5q0 166 -41 302t-119 231.5t-189.5 147.5t-252.5 52q-147 0 -264 -55.5t-198 -157.5t-125 -245.5t-44 -321.5zM416 1499h272l438 375h-452zM426 723q0 152 14.5 270.5 t40.5 184.5q35 90 131 90q47 0 83 -23.5t53 -64.5q29 -63 44 -188.5t15 -289.5q0 -145 -12.5 -242.5t-37 -154.5t-60 -81.5t-83.5 -24.5q-45 0 -79.5 25.5t-59 86t-37 160.5t-12.5 252z" />
<glyph unicode="&#xd4;" d="M6 713q0 -170 42 -306.5t121 -232.5t192.5 -148.5t256.5 -52.5t259 56.5t196 159t123 248t43 323.5q0 166 -41 302t-119 231.5t-189.5 147.5t-252.5 52q-147 0 -264 -55.5t-198 -157.5t-125 -245.5t-44 -321.5zM213 1483h264l154 110l162 -110h266l-285 375h-282z M426 723q0 152 14.5 270.5t40.5 184.5q35 90 131 90q47 0 83 -23.5t53 -64.5q29 -63 44 -188.5t15 -289.5q0 -145 -12.5 -242.5t-37 -154.5t-60 -81.5t-83.5 -24.5q-45 0 -79.5 25.5t-59 86t-37 160.5t-12.5 252z" />
<glyph unicode="&#xd5;" d="M6 713q0 -170 42 -306.5t121 -232.5t192.5 -148.5t256.5 -52.5t259 56.5t196 159t123 248t43 323.5q0 166 -41 302t-119 231.5t-189.5 147.5t-252.5 52q-147 0 -264 -55.5t-198 -157.5t-125 -245.5t-44 -321.5zM225 1636l150 -147l22 22l15 15q35 33 46 39t23 6 q4 0 22.5 -4t28.5 -8h3l90 -31q41 -14 73.5 -22.5t61.5 -8.5q72 2 138.5 50t115.5 130l12 21l-143 151l-25 -26q-37 -41 -54.5 -51.5t-37.5 -10.5h-6h-6q-2 0 -11 3l-24 10l-92 32q-78 29 -131 29q-129 -2 -254 -176zM426 723q0 152 14.5 270.5t40.5 184.5q35 90 131 90 q47 0 83 -23.5t53 -64.5q29 -63 44 -188.5t15 -289.5q0 -145 -12.5 -242.5t-37 -154.5t-60 -81.5t-83.5 -24.5q-45 0 -79.5 25.5t-59 86t-37 160.5t-12.5 252z" />
<glyph unicode="&#xd6;" d="M6 713q0 -170 42 -306.5t121 -232.5t192.5 -148.5t256.5 -52.5t259 56.5t196 159t123 248t43 323.5q0 166 -41 302t-119 231.5t-189.5 147.5t-252.5 52q-147 0 -264 -55.5t-198 -157.5t-125 -245.5t-44 -321.5zM305 1677q-4 -86 41 -140t125 -50q82 -4 127 51t41 143 q6 88 -40 142.5t-128 48.5q-82 6 -127 -49.5t-39 -145.5zM426 723q0 152 14.5 270.5t40.5 184.5q35 90 131 90q47 0 83 -23.5t53 -64.5q29 -63 44 -188.5t15 -289.5q0 -145 -12.5 -242.5t-37 -154.5t-60 -81.5t-83.5 -24.5q-45 0 -79.5 25.5t-59 86t-37 160.5t-12.5 252z M672 1677q-4 -86 41 -140t125 -50q41 -2 72.5 15.5t54 48t33 71.5t8.5 84q6 88 -40 130t-128 36q-82 6 -127 -49.5t-39 -145.5z" />
<glyph unicode="&#xd8;" d="M6 717q0 -193 48 -337t149 -243l-86 -160l149 -71l74 131q72 -35 133.5 -49.5t138.5 -14.5q145 0 262 55.5t198 159t124 249t43 323.5q0 188 -47 325.5t-152 247.5l88 152l-149 76l-74 -127q-72 35 -133 47t-139 12q-145 0 -262 -55.5t-198 -156.5t-124 -245.5 t-43 -318.5zM426 752q0 152 12.5 252t36 159.5t59 83t82.5 21.5q51 -2 81 -22.5t63 -84.5l-326 -598q-4 43 -6 85.5t-2 103.5zM479 303l324 590q4 -41 4 -82v-88q0 -156 -12.5 -258.5t-36 -161.5t-59 -82.5t-83.5 -21.5q-29 0 -48 4t-34.5 15t-28 31.5t-26.5 53.5z" />
<glyph unicode="&#xd9;" horiz-adv-x="1468" d="M119 489q0 -76 7 -135t25.5 -107t47 -87t71.5 -74q76 -61 170.5 -86t235.5 -27q260 -4 393 131.5t133 391.5v970h-305v-1017q0 -47 -2 -77t-8 -49.5t-15.5 -33t-23.5 -25.5q-25 -20 -58.5 -31.5t-87.5 -9.5q-49 2 -82.5 12.5t-54 35t-29 66.5t-8.5 109v1020h-409v-977z M168 1858l438 -375h273l-258 375h-453z" />
<glyph unicode="&#xda;" horiz-adv-x="1468" d="M119 489q0 -76 7 -135t25.5 -107t47 -87t71.5 -74q76 -61 170.5 -86t235.5 -27q260 -4 393 131.5t133 391.5v970h-305v-1017q0 -47 -2 -77t-8 -49.5t-15.5 -33t-23.5 -25.5q-25 -20 -58.5 -31.5t-87.5 -9.5q-49 2 -82.5 12.5t-54 35t-29 66.5t-8.5 109v1020h-409v-977z M463 1483h272l439 375h-453z" />
<glyph unicode="&#xdb;" horiz-adv-x="1468" d="M119 489q0 -76 7 -135t25.5 -107t47 -87t71.5 -74q76 -61 170.5 -86t235.5 -27q260 -4 393 131.5t133 391.5v970h-305v-1017q0 -47 -2 -77t-8 -49.5t-15.5 -33t-23.5 -25.5q-25 -20 -58.5 -31.5t-87.5 -9.5q-49 2 -82.5 12.5t-54 35t-29 66.5t-8.5 109v1020h-409v-977z M260 1491h264l154 111l162 -111h266l-285 375h-282z" />
<glyph unicode="&#xdc;" horiz-adv-x="1468" d="M119 489q0 -76 7 -135t25.5 -107t47 -87t71.5 -74q76 -61 170.5 -86t235.5 -27q260 -4 393 131.5t133 391.5v970h-305v-1017q0 -47 -2 -77t-8 -49.5t-15.5 -33t-23.5 -25.5q-25 -20 -58.5 -31.5t-87.5 -9.5q-49 2 -82.5 12.5t-54 35t-29 66.5t-8.5 109v1020h-409v-977z M332 1665q-4 -86 41 -140.5t125 -49.5q82 -4 127 51t41 143q6 88 -40 142.5t-128 48.5q-82 6 -127 -49.5t-39 -145.5zM698 1665q-4 -86 41 -140.5t125 -49.5q41 -2 73 15t54.5 48t32.5 72t8 84q6 88 -40 130t-128 36q-82 6 -127 -49.5t-39 -145.5z" />
<glyph unicode="&#xdd;" horiz-adv-x="1413" d="M-20 1466l471 -891v-571h397v617l436 845h-276l-277 -589l-258 589h-493zM430 1442h272l439 375h-453z" />
<glyph unicode="&#xdf;" horiz-adv-x="1488" d="M119 4h397v1206q0 37 3 85t16.5 92.5t42 75t79.5 28.5q70 -2 113 -30.5t47 -104.5q0 -29 -6 -62.5t-17.5 -67.5t-28.5 -65t-38 -51h2q-33 -33 -64.5 -65.5t-56 -69.5t-40 -79t-15.5 -91q2 -86 49 -149.5t113 -112.5h2l164 -119h-2q55 -29 91 -64.5t41 -71.5t-26 -67 t-106 -47q-35 -6 -81 0t-87 16.5t-70 19.5l-29 9l-39 -192q4 0 30 -3.5t68 -9.5t77 -14q104 -25 211.5 -15.5t194.5 54.5t142.5 128t55.5 208q0 88 -34 152.5t-83 113.5t-107.5 86t-108.5 69.5t-83 65.5t-31 74q0 35 22.5 58.5t54.5 46t68.5 49t68.5 65.5t52.5 96.5 t20.5 143.5q0 90 -50 150.5t-130 95t-179.5 46t-197.5 5.5t-185.5 -28t-142.5 -52h-2q-55 -31 -92 -78t-57.5 -104.5t-28.5 -119t-8 -120.5v-1186z" />
<glyph unicode="&#xe0;" horiz-adv-x="1165" d="M-8 344q0 -74 24.5 -139.5t66.5 -114.5t100.5 -76.5t127.5 -27.5q51 0 95.5 14t109.5 49h2q23 12 35 17l12 4v-66h373v870q0 92 -21.5 152.5t-74.5 101.5v2q-96 76 -252 76q-51 0 -117.5 -8t-130.5 -24q-37 -10 -83 -21.5t-101 -28.5v2l-76 -30l10 -174l43 16l33 12 q33 12 79 27.5t99 28t96 12.5q53 -2 87 -26.5t34 -98.5v-107l-162 -16h2q-104 -8 -182 -45t-129 -94.5t-75.5 -131t-24.5 -155.5zM37 1628l438 -375h273l-259 375h-452zM377 383q-2 70 31.5 127t117.5 76l37 8v-344q-10 -4 -20 -4h-23q-74 4 -108.5 35.5t-34.5 101.5z" />
<glyph unicode="&#xe1;" horiz-adv-x="1165" d="M-8 344q0 -74 24.5 -139.5t66.5 -114.5t100.5 -76.5t127.5 -27.5q51 0 95.5 14t109.5 49h2q23 12 35 17l12 4v-66h373v870q0 92 -21.5 152.5t-74.5 101.5v2q-96 76 -252 76q-51 0 -117.5 -8t-130.5 -24q-37 -10 -83 -21.5t-101 -28.5v2l-76 -30l10 -174l43 16l33 12 q33 12 79 27.5t99 28t96 12.5q53 -2 87 -26.5t34 -98.5v-107l-162 -16h2q-104 -8 -182 -45t-129 -94.5t-75.5 -131t-24.5 -155.5zM315 1253h273l438 375h-453zM377 383q-2 70 31.5 127t117.5 76l37 8v-344q-10 -4 -20 -4h-23q-74 4 -108.5 35.5t-34.5 101.5z" />
<glyph unicode="&#xe2;" horiz-adv-x="1165" d="M-8 344q0 -74 24.5 -139.5t66.5 -114.5t100.5 -76.5t127.5 -27.5q51 0 95.5 14t109.5 49h2q23 12 35 17l12 4v-66h373v870q0 92 -21.5 152.5t-74.5 101.5v2q-96 76 -252 76q-51 0 -117.5 -8t-130.5 -24q-37 -10 -83 -21.5t-101 -28.5v2l-76 -30l10 -174l43 16l33 12 q33 12 79 27.5t99 28t96 12.5q53 -2 87 -26.5t34 -98.5v-107l-162 -16h2q-104 -8 -182 -45t-129 -94.5t-75.5 -131t-24.5 -155.5zM113 1253h264l153 111l162 -111h266l-284 375h-283zM377 383q-2 70 31.5 127t117.5 76l37 8v-344q-10 -4 -20 -4h-23q-74 4 -108.5 35.5 t-34.5 101.5z" />
<glyph unicode="&#xe3;" horiz-adv-x="1165" d="M-8 344q0 -74 24.5 -139.5t66.5 -114.5t100.5 -76.5t127.5 -27.5q51 0 95.5 14t109.5 49h2q23 12 35 17l12 4v-66h373v870q0 92 -21.5 152.5t-74.5 101.5v2q-96 76 -252 76q-51 0 -117.5 -8t-130.5 -24q-37 -10 -83 -21.5t-101 -28.5v2l-76 -30l10 -174l43 16l33 12 q33 12 79 27.5t99 28t96 12.5q53 -2 87 -26.5t34 -98.5v-107l-162 -16h2q-104 -8 -182 -45t-129 -94.5t-75.5 -131t-24.5 -155.5zM125 1407l149 -147l23 22l14 14q35 33 46.5 39t23.5 6q4 0 22.5 -4t28.5 -8h2l90 -31q41 -14 74 -22t61 -8q72 2 138.5 50t115.5 130l13 20 l-144 152l-24 -27q-37 -41 -54.5 -51t-37.5 -10h-7h-6q-2 0 -10 3l-25 9l-92 33q-78 29 -131 29q-129 -2 -254 -176zM377 383q-2 70 31.5 127t117.5 76l37 8v-344q-10 -4 -20 -4h-23q-74 4 -108.5 35.5t-34.5 101.5z" />
<glyph unicode="&#xe4;" horiz-adv-x="1165" d="M-8 344q0 -74 24.5 -139.5t66.5 -114.5t100.5 -76.5t127.5 -27.5q51 0 95.5 14t109.5 49h2q23 12 35 17l12 4v-66h373v870q0 92 -21.5 152.5t-74.5 101.5v2q-96 76 -252 76q-51 0 -117.5 -8t-130.5 -24q-37 -10 -83 -21.5t-101 -28.5v2l-76 -30l10 -174l43 16l33 12 q33 12 79 27.5t99 28t96 12.5q53 -2 87 -26.5t34 -98.5v-107l-162 -16h2q-104 -8 -182 -45t-129 -94.5t-75.5 -131t-24.5 -155.5zM193 1440q-4 -86 41 -140.5t124 -50.5q82 -4 127 51.5t41 143.5q6 88 -40 142t-128 48q-82 6 -126.5 -49t-38.5 -145zM377 383q0 70 32.5 127 t116.5 76l37 8v-344q-10 -4 -20 -4h-23q-74 4 -107.5 35.5t-35.5 101.5zM559 1440q-4 -86 41 -140.5t125 -50.5q41 -2 72.5 15.5t54 48t33 71.5t8.5 84q6 88 -40 130t-128 36q-82 6 -127 -49t-39 -145z" />
<glyph unicode="&#xe5;" horiz-adv-x="1165" d="M-8 344q0 -74 24.5 -139.5t66.5 -114.5t100.5 -76.5t127.5 -27.5q51 0 95.5 14t109.5 49h2q23 12 35 17l12 4v-66h373v870q0 92 -21.5 152.5t-74.5 101.5v2q-96 76 -252 76q-51 0 -117.5 -8t-130.5 -24q-37 -10 -83 -21.5t-101 -28.5v2l-76 -30l10 -174l43 16l33 12 q33 12 79 27.5t99 28t96 12.5q53 -2 87 -26.5t34 -98.5v-107l-162 -16h2q-104 -8 -182 -45t-129 -94.5t-75.5 -131t-24.5 -155.5zM227 1442q0 -111 83 -169.5t220 -58.5q135 0 218 57.5t83 170.5q0 111 -82.5 169t-218.5 58q-137 0 -220 -58t-83 -169zM377 383 q-2 70 31.5 127t117.5 76l37 8v-344q-10 -4 -20 -4h-23q-74 4 -108.5 35.5t-34.5 101.5zM465 1440q4 45 17.5 59t47.5 19q33 -2 46.5 -17.5t17.5 -58.5q-4 -41 -19.5 -56.5t-50.5 -19.5q-33 4 -44 16.5t-15 57.5z" />
<glyph unicode="&#xe6;" horiz-adv-x="1685" d="M-8 340q0 -80 26.5 -145.5t75.5 -111.5t118 -71.5t150 -25.5q184 0 347 131q72 -72 149.5 -102.5t181.5 -28.5h52q23 0 50 4t67 13t104 26l196 51l-28 190l-33 -4q-55 -6 -90 -8t-76 -2q-59 0 -104 8t-81 23.5t-63.5 40t-54.5 59.5q-31 43 -44 82t-17 92l604 98v70 q0 80 -8.5 131t-23.5 88t-37.5 65.5t-53.5 63.5v-2q-55 66 -138 98.5t-182 32.5q-76 0 -138 -17.5t-128 -58.5q-55 45 -102 60.5t-113 15.5q-86 -2 -185.5 -10t-209.5 -43q-23 -6 -51.5 -17.5t-47 -18.5t-20.5 -9l6 -217l45 24l32 18q32 17 78 36.5t99 36t98 14.5 q53 -2 87 -27.5t34 -103.5v-168l-160 -14q-201 -18 -307 -108.5t-104 -258.5zM377 381q2 35 9 57.5t23.5 38t44 25.5t74.5 20h-2l37 6v-278q-12 -4 -22 -4h-21q-78 4 -108.5 33.5t-34.5 101.5zM915 745v7q0 78 8.5 129t24 80.5t39 42t51.5 12.5q43 0 71 -44t28 -167v-27z " />
<glyph unicode="&#xe7;" horiz-adv-x="1015" d="M0 551q0 -106 25.5 -197.5t72.5 -164t117 -122t156 -69.5v-127l26 -6q23 -4 26 -9.5t5 -17.5q0 -23 -15.5 -38t-68.5 -38l-25 -10l37 -207l33 6q162 31 253 102t93 185q0 33 -17.5 61.5t-39 51t-38.5 36.5l-17 13q4 0 33.5 4t77.5 12.5t85 16.5q27 6 58.5 17t51 18.5 t21.5 9.5l-32 194l-33 -6q-57 -10 -94 -15t-72 -5q-141 2 -219 98t-80 289q0 94 5 164.5t22.5 119t50 72t86.5 23.5q41 0 95 -10.5t101 -22.5t80 -23l33 -10h43v209l-27 6q-106 25 -189 35t-147 10q-127 0 -232 -49t-181 -136t-118 -208t-42 -262z" />
<glyph unicode="&#xe8;" horiz-adv-x="1114" d="M0 555q0 -127 36 -231.5t102.5 -180t158.5 -116.5t207 -41q63 0 127.5 8t163.5 33l123 30l71 17l-31 198l-32 -6q-68 -12 -108 -16t-79 -4q-147 4 -231 79.5t-107 235.5l603 66v71q0 82 -7.5 138.5t-21.5 98.5t-39 74.5t-57 67.5q-59 66 -143.5 97.5t-182.5 31.5 q-127 0 -228.5 -47t-174 -133t-111.5 -207t-39 -264zM12 1628l439 -375h272l-258 375h-453zM397 743v9q0 154 33 210t90 54q25 0 43.5 -8.5t30.5 -32t18 -64.5t6 -106v-31z" />
<glyph unicode="&#xe9;" horiz-adv-x="1114" d="M0 555q0 -127 36 -231.5t102.5 -180t158.5 -116.5t207 -41q63 0 127.5 8t163.5 33l123 30l71 17l-31 198l-32 -6q-68 -12 -108 -16t-79 -4q-147 4 -231 79.5t-107 235.5l603 66v71q0 82 -7.5 138.5t-21.5 98.5t-39 74.5t-57 67.5q-59 66 -143.5 97.5t-182.5 31.5 q-127 0 -228.5 -47t-174 -133t-111.5 -207t-39 -264zM291 1253h272l438 375h-452zM397 743v9q0 154 33 210t90 54q25 0 43.5 -8.5t30.5 -32t18 -64.5t6 -106v-31z" />
<glyph unicode="&#xea;" horiz-adv-x="1114" d="M0 555q0 -127 36 -231.5t102.5 -180t158.5 -116.5t207 -41q63 0 127.5 8t163.5 33l123 30l71 17l-31 198l-32 -6q-68 -12 -108 -16t-79 -4q-147 4 -231 79.5t-107 235.5l603 66v71q0 82 -7.5 138.5t-21.5 98.5t-39 74.5t-57 67.5q-59 66 -143.5 97.5t-182.5 31.5 q-127 0 -228.5 -47t-174 -133t-111.5 -207t-39 -264zM88 1253h264l154 111l162 -111h266l-285 375h-282zM397 743v9q0 154 33 210t90 54q25 0 43.5 -8.5t30.5 -32t18 -64.5t6 -106v-31z" />
<glyph unicode="&#xeb;" horiz-adv-x="1114" d="M0 555q0 -127 36 -231.5t102.5 -180t158.5 -116.5t207 -41q63 0 127.5 8t163.5 33l123 30l71 17l-31 198l-32 -6q-68 -12 -108 -16t-79 -4q-147 4 -231 79.5t-107 235.5l603 66v71q0 82 -7.5 138.5t-21.5 98.5t-39 74.5t-57 67.5q-59 66 -143.5 97.5t-182.5 31.5 q-127 0 -228.5 -47t-174 -133t-111.5 -207t-39 -264zM168 1440q-4 -86 41 -140.5t125 -50.5q82 -4 127 51.5t41 143.5q6 88 -40 142t-128 48q-82 6 -127 -49t-39 -145zM397 743v9q0 154 33 210t90 54q25 0 43.5 -8.5t30.5 -32t18 -64.5t6 -106v-31zM535 1440 q-4 -86 41 -140.5t124 -50.5q41 -2 73 15.5t54.5 48t32.5 71.5t8 84q6 88 -40 130t-128 36q-82 6 -126.5 -49t-38.5 -145z" />
<glyph unicode="&#xec;" horiz-adv-x="708" d="M-170 1628l438 -375h273l-258 375h-453zM123 4h397v1219l-397 -64v-1155z" />
<glyph unicode="&#xed;" horiz-adv-x="708" d="M109 1253h272l438 375h-452zM123 4h397v1219l-397 -64v-1155z" />
<glyph unicode="&#xee;" horiz-adv-x="708" d="M-94 1253h264l154 111l161 -111h267l-285 375h-283zM123 4h397v1219l-397 -64v-1155z" />
<glyph unicode="&#xef;" horiz-adv-x="708" d="M-14 1440q-4 -86 41 -140.5t125 -50.5q82 -4 127 51.5t40 143.5q6 88 -40 142t-127 48q-82 6 -127 -49t-39 -145zM123 4h397v1219l-397 -64v-1155zM352 1440q-4 -86 41 -140.5t125 -50.5q41 -2 73 15.5t54.5 48t32.5 71.5t8 84q6 88 -40 130t-128 36q-82 6 -127 -49 t-39 -145z" />
<glyph unicode="&#xf1;" horiz-adv-x="1378" d="M123 4h397v926q39 6 68 6q39 -2 66.5 -11.5t44 -32t23.5 -63.5t7 -106v-719h397v778q0 123 -23.5 201t-80.5 135q-88 88 -215 88q-51 0 -97 -12t-116 -47q-23 -10 -40 -18.5t-34 -16.5v109l-397 -50v-1167zM217 1407l150 -147l22 22l14 14q35 33 46.5 39t23.5 6 q4 0 22.5 -4t28.5 -8h2l90 -31q41 -14 74 -22t62 -8q72 2 138 50t116 130l12 20l-144 152l-24 -27q-37 -41 -54.5 -51t-37.5 -10h-6h-7q-2 0 -10 3l-24 9l-93 33q-78 29 -131 29q-129 -2 -254 -176z" />
<glyph unicode="&#xf2;" horiz-adv-x="1232" d="M0 578q0 -135 38 -245t109.5 -186.5t172 -118.5t227.5 -42q129 0 232.5 47t176 130t112.5 200.5t40 259.5q0 137 -38 246.5t-108.5 187.5t-172 119t-230.5 41t-231.5 -46.5t-175 -130.5t-112.5 -201.5t-40 -260.5zM66 1628l438 -375h272l-258 375h-452zM410 616 q0 123 7 199t24.5 117t43 55t62.5 14q39 0 67.5 -17t48 -65.5t27.5 -133.5t8 -220q0 -121 -8 -194.5t-24.5 -113.5t-43 -54.5t-63.5 -14.5t-65.5 17.5t-47 65.5t-27.5 131t-9 214z" />
<glyph unicode="&#xf3;" horiz-adv-x="1232" d="M0 578q0 -135 38 -245t109.5 -186.5t172 -118.5t227.5 -42q129 0 232.5 47t176 130t112.5 200.5t40 259.5q0 137 -38 246.5t-108.5 187.5t-172 119t-230.5 41t-231.5 -46.5t-175 -130.5t-112.5 -201.5t-40 -260.5zM344 1253h272l439 375h-453zM410 616q0 123 7 199 t24.5 117t43 55t62.5 14q39 0 67.5 -17t48 -65.5t27.5 -133.5t8 -220q0 -121 -8 -194.5t-24.5 -113.5t-43 -54.5t-63.5 -14.5t-65.5 17.5t-47 65.5t-27.5 131t-9 214z" />
<glyph unicode="&#xf4;" horiz-adv-x="1232" d="M0 578q0 -135 38 -245t109.5 -186.5t172 -118.5t227.5 -42q129 0 232.5 47t176 130t112.5 200.5t40 259.5q0 137 -38 246.5t-108.5 187.5t-172 119t-230.5 41t-231.5 -46.5t-175 -130.5t-112.5 -201.5t-40 -260.5zM141 1253h265l153 111l162 -111h266l-285 375h-282z M410 616q0 123 7 199t24.5 117t43 55t62.5 14q39 0 67.5 -17t48 -65.5t27.5 -133.5t8 -220q0 -121 -8 -194.5t-24.5 -113.5t-43 -54.5t-63.5 -14.5t-65.5 17.5t-47 65.5t-27.5 131t-9 214z" />
<glyph unicode="&#xf5;" horiz-adv-x="1232" d="M0 578q0 -135 38 -245t109.5 -186.5t172 -118.5t227.5 -42q129 0 232.5 47t176 130t112.5 200.5t40 259.5q0 137 -38 246.5t-108.5 187.5t-172 119t-230.5 41t-231.5 -46.5t-175 -130.5t-112.5 -201.5t-40 -260.5zM154 1407l149 -147l23 22l14 14q35 33 46 39t24 6 q4 0 22.5 -4t28.5 -8h2l90 -31q41 -14 73.5 -22t61.5 -8q72 2 138.5 50t115.5 130l12 20l-143 152l-25 -27q-37 -41 -54 -51t-38 -10h-6h-6q-2 0 -10 3l-25 9l-92 33q-78 29 -131 29q-129 -2 -254 -176zM410 616q0 123 7 199t24.5 117t43 55t62.5 14q39 0 67.5 -17t48 -65.5 t27.5 -133.5t8 -220q0 -121 -8 -194.5t-24.5 -113.5t-43 -54.5t-63.5 -14.5t-65.5 17.5t-47 65.5t-27.5 131t-9 214z" />
<glyph unicode="&#xf6;" horiz-adv-x="1232" d="M0 578q0 -135 38 -245t109.5 -186.5t172 -118.5t227.5 -42q129 0 232.5 47t176 130t112.5 200.5t40 259.5q0 137 -38 246.5t-108.5 187.5t-172 119t-230.5 41t-231.5 -46.5t-175 -130.5t-112.5 -201.5t-40 -260.5zM221 1440q-4 -86 41 -140.5t125 -50.5q82 -4 127 51.5 t41 143.5q6 88 -40 142t-128 48q-82 6 -127 -49t-39 -145zM410 616q0 123 7 199t24.5 117t43 55t62.5 14q39 0 67.5 -17t48 -65.5t27.5 -133.5t8 -220q0 -121 -8 -194.5t-24.5 -113.5t-43 -54.5t-63.5 -14.5t-65.5 17.5t-47 65.5t-27.5 131t-9 214zM588 1440 q-4 -86 41 -140.5t125 -50.5q41 -2 72.5 15.5t54 48t33 71.5t8.5 84q6 88 -40 130t-128 36q-82 6 -127 -49t-39 -145z" />
<glyph unicode="&#xf8;" horiz-adv-x="1232" d="M0 565q2 -123 28.5 -214t94.5 -183l-105 -135l129 -101l99 129q72 -41 142.5 -58t158.5 -17q129 0 232.5 45t177 129t112.5 201.5t39 259.5q0 125 -29.5 223t-93.5 184l109 133l-129 99l-99 -125q-68 43 -139.5 62.5t-165.5 19.5q-129 0 -233.5 -46.5t-177 -131.5 t-111.5 -206t-39 -268zM410 590v49q0 113 8 183.5t25.5 110.5t43 54t62.5 14q27 0 44 -5t31.5 -17t24.5 -35.5t21 -62.5l-258 -336q-2 25 -2 45zM440 317l27 34q27 34 63.5 82t75.5 99.5t63.5 84t26.5 34.5q2 -23 2 -43v-41q0 -117 -8 -191.5t-25.5 -116.5t-43 -57.5 t-58.5 -13.5q-27 2 -45 6.5t-31.5 18.5t-24 38.5t-22.5 65.5z" />
<glyph unicode="&#xf9;" horiz-adv-x="1361" d="M102 414q0 -127 21.5 -203t81.5 -131v-2q88 -82 207 -82q27 0 54.5 4t61 13.5t77.5 26.5t106 44v-80h395v1219l-395 -60v-893q-16 -2 -27.5 -3t-28.5 1q-53 4 -84.5 9.5t-47 23.5t-19.5 57t-4 113v752l-398 -64v-745zM125 1628l438 -375h273l-258 375h-453z" />
<glyph unicode="&#xfa;" horiz-adv-x="1361" d="M102 414q0 -127 21.5 -203t81.5 -131v-2q88 -82 207 -82q27 0 54.5 4t61 13.5t77.5 26.5t106 44v-80h395v1219l-395 -60v-893q-16 -2 -27.5 -3t-28.5 1q-53 4 -84.5 9.5t-47 23.5t-19.5 57t-4 113v752l-398 -64v-745zM403 1253h273l438 375h-452z" />
<glyph unicode="&#xfb;" horiz-adv-x="1361" d="M102 414q0 -127 21.5 -203t81.5 -131v-2q88 -82 207 -82q27 0 54.5 4t61 13.5t77.5 26.5t106 44v-80h395v1219l-395 -60v-893q-16 -2 -27.5 -3t-28.5 1q-53 4 -84.5 9.5t-47 23.5t-19.5 57t-4 113v752l-398 -64v-745zM201 1253h264l153 111l162 -111h267l-285 375h-283z " />
<glyph unicode="&#xfc;" horiz-adv-x="1361" d="M102 414q0 -127 21.5 -203t81.5 -131v-2q88 -82 207 -82q27 0 54.5 4t61 13.5t77.5 26.5t106 44v-80h395v1219l-395 -60v-893q-16 -2 -27.5 -3t-28.5 1q-53 4 -84.5 9.5t-47 23.5t-19.5 57t-4 113v752l-398 -64v-745zM281 1440q-4 -86 41 -140.5t124 -50.5 q82 -4 127 51.5t41 143.5q6 88 -40 142t-128 48q-82 6 -126.5 -49t-38.5 -145zM647 1440q-4 -86 41 -140.5t125 -50.5q41 -2 73 15.5t54.5 48t32.5 71.5t8 84q6 88 -40 130t-128 36q-82 6 -127 -49t-39 -145z" />
<glyph unicode="&#xfd;" horiz-adv-x="1204" d="M-18 1200l430 -1216q0 -2 -5.5 -19.5t-14.5 -43t-21 -44.5q-25 -37 -49.5 -58.5t-71.5 -37.5q-33 -10 -72 -6t-73.5 12t-58.5 17l-23 10l-7 -232l25 -5q25 -5 58.5 -10t69.5 -10.5t56 -5.5q154 -4 243 72t148 242l474 1331h-265l-211 -657l-17 49q-17 49 -43 122.5 t-55.5 159.5t-55 159t-43.5 122l-17 49h-401zM332 1253h272l438 375h-452z" />
<glyph unicode="&#xff;" horiz-adv-x="1204" d="M-18 1200l430 -1216q0 -2 -5.5 -19.5t-14.5 -43t-21 -44.5q-25 -37 -49.5 -58.5t-71.5 -37.5q-33 -10 -72 -6t-73.5 12t-58.5 17l-23 10l-7 -232l25 -5q25 -5 58.5 -10t69.5 -10.5t56 -5.5q154 -4 243 72t148 242l474 1331h-265l-211 -657l-17 49q-17 49 -43 122.5 t-55.5 159.5t-55 159t-43.5 122l-17 49h-401zM209 1440q-4 -86 41 -140.5t125 -50.5q82 -4 127 51.5t41 143.5q6 88 -40 142t-128 48q-82 6 -127 -49t-39 -145zM575 1440q-4 -86 41.5 -140.5t124.5 -50.5q41 -2 73 15.5t54.5 48t32.5 71.5t8 84q6 88 -40 130t-128 36 q-82 6 -127 -49t-39 -145z" />
<glyph unicode="&#x152;" horiz-adv-x="1925" d="M6 717q0 -166 41 -301t119 -231.5t188.5 -147.5t249.5 -51q49 0 93 5t104 17h942v203h-572v438h525v203h-525v416h547v202h-911q-43 14 -80 18.5t-84 4.5q-150 0 -268.5 -53.5t-200.5 -154.5t-125 -245.5t-43 -322.5zM426 717q0 158 13.5 264t38 171t61 91.5t86.5 24.5 q47 -2 77.5 -21.5t59.5 -75.5v-841q-16 -37 -30.5 -59.5t-31 -36t-37 -18.5t-49.5 -5q-49 -2 -84.5 19.5t-58 79t-34 155.5t-11.5 252z" />
<glyph unicode="&#x153;" horiz-adv-x="1851" d="M0 573q0 -133 38 -242.5t108.5 -186t170 -117.5t224.5 -41q104 2 186 29.5t162 93.5q82 -59 152.5 -85t152.5 -26q35 0 73 4t83 13.5t102 23.5t131 35h2l66 20l-27 193l-33 -4q-49 -6 -79.5 -10.5t-65.5 -4.5q-174 4 -262 77t-107 228l43 6q43 5 108.5 13t142.5 18.5 t142.5 18.5t109.5 13l44 5v70q0 82 -7 137t-22.5 96t-38 74t-55.5 68q-57 63 -139 94t-180 33q-92 0 -163 -27t-149 -90q-76 61 -158.5 89t-187.5 28q-131 0 -235.5 -46.5t-178 -131.5t-113.5 -204t-40 -264zM410 637q0 115 9 188.5t26.5 115.5t43 58.5t60.5 16.5 q37 0 64.5 -18.5t47 -67.5t28.5 -134t9 -216q0 -121 -8 -195t-24.5 -115t-42 -55t-62.5 -14t-65.5 18.5t-47 67.5t-28.5 134t-10 216zM1073 760v4q0 152 32 209t85 55q25 0 44 -9t31.5 -32.5t19.5 -65.5t7 -106v-22z" />
<glyph unicode="&#x178;" horiz-adv-x="1413" d="M-20 1466l471 -891v-571h397v617l436 845h-276l-277 -589l-258 589h-493zM373 1661q-4 -86 41 -140.5t125 -50.5q82 -4 127 51.5t41 143.5q6 88 -40 142.5t-128 47.5q-82 6 -127 -49t-39 -145zM739 1661q-4 -86 41 -140.5t125 -50.5q41 -2 73 15.5t54.5 48.5t32.5 72 t8 84q6 88 -40 130t-128 35q-82 6 -127 -49t-39 -145z" />
<glyph unicode="&#x2c6;" horiz-adv-x="0" d="M-414 1253h264l154 111l162 -111h266l-285 375h-282z" />
<glyph unicode="&#x2dc;" horiz-adv-x="0" d="M-401 1407l149 -147l23 22l14 14q35 33 46 39t24 6q4 0 22.5 -4t28.5 -8h2l90 -31q41 -14 73.5 -22t61.5 -8q72 2 138.5 50t115.5 130l12 20l-143 152l-25 -27q-37 -41 -54 -51t-38 -10h-6h-6q-2 0 -10 3l-25 9l-92 33q-78 29 -131 29q-129 -2 -254 -176z" />
<glyph unicode="&#x2000;" horiz-adv-x="970" />
<glyph unicode="&#x2001;" horiz-adv-x="1943" />
<glyph unicode="&#x2002;" horiz-adv-x="970" />
<glyph unicode="&#x2003;" horiz-adv-x="1943" />
<glyph unicode="&#x2004;" horiz-adv-x="647" />
<glyph unicode="&#x2005;" horiz-adv-x="485" />
<glyph unicode="&#x2006;" horiz-adv-x="323" />
<glyph unicode="&#x2007;" horiz-adv-x="323" />
<glyph unicode="&#x2008;" horiz-adv-x="241" />
<glyph unicode="&#x2009;" horiz-adv-x="387" />
<glyph unicode="&#x200a;" horiz-adv-x="106" />
<glyph unicode="&#x2010;" horiz-adv-x="555" d="M6 477h490v328h-490v-328z" />
<glyph unicode="&#x2011;" horiz-adv-x="555" d="M6 477h490v328h-490v-328z" />
<glyph unicode="&#x2012;" horiz-adv-x="555" d="M6 477h490v328h-490v-328z" />
<glyph unicode="&#x2013;" horiz-adv-x="1048" d="M2 510h944v260h-944v-260z" />
<glyph unicode="&#x2014;" horiz-adv-x="1220" d="M2 510h1149v260h-1149v-260z" />
<glyph unicode="&#x2018;" horiz-adv-x="503" d="M0 1135q0 -113 61.5 -174.5t176.5 -61.5q100 0 160.5 47t56.5 137q2 39 -10.5 72t-35 56.5t-54 37t-68.5 11.5q-8 0 -1 -2l7 -1l15 14q15 13 83 36l33 10l-62 182l-26 -4q-332 -49 -336 -360z" />
<glyph unicode="&#x2019;" horiz-adv-x="503" d="M0 1300q-2 -39 10.5 -71.5t35 -57t54 -38t68.5 -11.5q10 0 2 -1l-8 -1l-16 -11q-15 -11 -83 -34l-32 -10l61 -182l27 4q332 49 336 364q0 113 -62.5 176.5t-177.5 59.5q-98 4 -158.5 -45.5t-56.5 -141.5z" />
<glyph unicode="&#x201c;" horiz-adv-x="995" d="M0 1133q0 -113 61.5 -174.5t176.5 -61.5q100 0 161.5 46t55.5 138q2 43 -23.5 75t-56.5 54.5t-57 33.5l-25 11l15 14q15 13 83 36l33 10l-62 182l-26 -4q-164 -25 -249 -115.5t-87 -244.5zM487 1130q0 -111 62.5 -172t175.5 -61q100 0 161.5 46t55.5 138q2 39 -10 72 t-35 56.5t-54.5 37t-68.5 10.5l29 17q29 16 55 26q14 4 34 10l19 5l-61 182l-27 -4q-164 -25 -249 -116t-87 -247z" />
<glyph unicode="&#x201d;" horiz-adv-x="995" d="M0 1300q-2 -39 10.5 -71.5t35 -57t54 -38t68.5 -11.5q10 0 2 -1l-8 -1l-5 -5q-5 -5 -26.5 -15t-67.5 -25l-32 -10l61 -182l27 4q166 25 251 117t85 247q2 113 -61.5 176.5t-178.5 59.5q-98 4 -158.5 -45.5t-56.5 -141.5zM473 1300q-2 -39 10.5 -71.5t35 -57t54 -38 t68.5 -11.5q10 0 3 -1l-7 -1l-16 -11q-16 -11 -86 -34l-31 -10l61 -182l27 4q166 25 251 117t85 247q2 113 -61.5 176.5t-178.5 59.5q-98 4 -158.5 -45.5t-56.5 -141.5z" />
<glyph unicode="&#x201e;" horiz-adv-x="995" d="M0 186q-2 -39 10.5 -71.5t35 -56t54 -37t68.5 -11.5q10 0 2 -1l-8 -1l-16 -11q-15 -11 -83 -34l-32 -10l61 -182l27 4q164 25 249 116t87 246q0 111 -62.5 172.5t-175.5 61.5q-100 0 -160.5 -47.5t-56.5 -137.5zM471 186q-2 -39 10.5 -71.5t35 -56t54 -37t68.5 -11.5 q10 0 3 -1l-7 -1l-15 -12q-15 -12 -85 -33l-33 -10l61 -182l27 4q164 25 249 116t87 246q0 111 -62.5 172.5t-175.5 61.5q-100 0 -160.5 -47.5t-56.5 -137.5z" />
<glyph unicode="&#x2022;" horiz-adv-x="688" d="M25 737q-8 -125 68.5 -185t219.5 -54q143 -8 217 55t66 192q6 117 -67.5 178.5t-206.5 55.5q-150 6 -227.5 -53.5t-69.5 -188.5z" />
<glyph unicode="&#x2026;" horiz-adv-x="1806" d="M23 186q-8 -96 42 -148t150 -46q98 -6 148.5 46t44.5 144q8 90 -43.5 141.5t-153.5 45.5q-94 4 -144 -46.5t-44 -136.5zM664 186q-6 -94 43 -147t151 -47q98 -6 147.5 46t43.5 144q8 92 -44.5 142.5t-152.5 44.5q-94 4 -144 -46.5t-44 -136.5zM1278 186q-6 -94 43 -147 t152 -47q98 -6 147 46t43 144q8 92 -44 142.5t-153 44.5q-94 4 -144 -46.5t-44 -136.5z" />
<glyph unicode="&#x202f;" horiz-adv-x="387" />
<glyph unicode="&#x2039;" horiz-adv-x="669" d="M25 623l288 -443h265l-289 443l289 434h-263z" />
<glyph unicode="&#x203a;" horiz-adv-x="655" d="M-8 180h262l291 434l-289 443h-264l287 -443z" />
<glyph unicode="&#x205f;" horiz-adv-x="485" />
<glyph unicode="&#x2122;" horiz-adv-x="1296" d="M-121 862q-8 -96 42 -148t151 -46q98 -6 148 46t44 144q8 90 -43 141.5t-153 44.5q-94 4 -144.5 -46t-44.5 -136zM-80 938q0 14 10.5 24.5t24.5 10.5t24.5 -10.5t10.5 -24.5h-2q0 -14 -9.5 -24.5t-23.5 -10.5t-24.5 10.5t-10.5 24.5zM-8 1073h143l82 195h164v-1264h410 v1264h163l80 -195h144v397h-1186v-397zM276 -299q0 -111 83 -169t221 -58q135 0 218 57t83 170q0 111 -82 169t-219 58t-220.5 -58t-83.5 -169zM514 -301q4 45 17.5 59.5t48.5 18.5q33 -2 46 -17.5t17 -58.5q-4 -41 -19.5 -56.5t-50.5 -19.5q-33 4 -44 16.5t-15 57.5z M930 862q-6 -94 43 -147t151 -47q98 -6 147.5 46t43.5 144q8 92 -44 142.5t-153 43.5q-94 4 -144 -46t-44 -136zM997 932q0 14 10.5 24.5t24.5 10.5t24.5 -10.5t10.5 -24.5t-10 -24.5t-25 -10.5q-14 0 -24.5 10.5t-10.5 24.5z" />
<glyph unicode="&#xe000;" horiz-adv-x="1190" d="M0 1190h1190v-1190h-1190v1190z" />
<glyph unicode="&#xfb01;" horiz-adv-x="1439" d="M819 1444q-1 -8 0 -16q0 -80 58 -121q57 -40 150 -40q13 0 26 1q12 -1 23 -1q88 0 142 42q56 43 56 121v16q1 8 0 16q0 80 -59 120q-57 39 -148 39q-13 0 -27 -1h-17q-92 0 -149 -41q-56 -41 -55 -119q-1 -8 0 -16zM854 4h397v1217l-397 -54v-1163zM-14 956h125v-952h397 v952h172v238h-172v117q0 45 2 69.5t8 37t17.5 15.5t27.5 5q51 0 88 -17.5t84 -29.5v188q-41 6 -95 22.5t-95 16.5q-78 0 -153 -23.5t-134 -66.5q-80 -55 -115 -137q-33 -77 -33 -192q0 -7 1 -13v8h-125v-238z" />
<glyph unicode="&#xfb02;" horiz-adv-x="1435" d="M850 4h397v1706l-397 -63v-1643zM-14 956h125v-952h397v952h172v238h-172v117q0 45 2 69.5t8 37t17.5 15.5t27.5 5q51 0 88 -17.5t84 -29.5v188q-41 6 -95 22.5t-95 16.5q-78 0 -153 -23.5t-134 -66.5q-80 -55 -115 -137q-33 -77 -33 -192q0 -7 1 -13v8h-125v-238z" />
<glyph unicode="&#xfb03;" horiz-adv-x="2170" d="M1550 1444q-1 -8 0 -16q0 -80 58 -121q57 -40 150 -40q13 0 26 1q12 -1 23 -1q88 0 142 42q56 43 56 121v16q1 8 0 16q0 80 -59 120q-57 39 -148 39q-13 0 -27 -1h-17q-92 0 -149 -41q-56 -41 -55 -119q-1 -8 0 -16zM1585 4h397v1217l-397 -54v-1163zM717 956h125v-952 h397v952h172v238h-172v117q0 45 2 69.5t8 37t17.5 15.5t27.5 5q51 0 88 -17.5t84 -29.5v188q-41 6 -95 22.5t-95 16.5q-78 0 -153 -23.5t-134 -66.5q-80 -55 -115 -137q-33 -77 -33 -192q0 -7 1 -13v8h-125v-238zM-14 956h125v-952h397v952h172v238h-172v117q0 45 2 69.5 t8 37t17.5 15.5t27.5 5q51 0 88 -17.5t84 -29.5v188q-41 6 -95 22.5t-95 16.5q-78 0 -153 -23.5t-134 -66.5q-80 -55 -115 -137q-33 -77 -33 -192q0 -7 1 -13v8h-125v-238z" />
<glyph unicode="&#xfb04;" horiz-adv-x="2166" d="M1581 4h397v1706l-397 -63v-1643zM717 956h125v-952h397v952h172v238h-172v117q0 45 2 69.5t8 37t17.5 15.5t27.5 5q51 0 88 -17.5t84 -29.5v188q-41 6 -95 22.5t-95 16.5q-78 0 -153 -23.5t-134 -66.5q-80 -55 -115 -137q-33 -77 -33 -192q0 -7 1 -13v8h-125v-238z M-14 956h125v-952h397v952h172v238h-172v117q0 45 2 69.5t8 37t17.5 15.5t27.5 5q51 0 88 -17.5t84 -29.5v188q-41 6 -95 22.5t-95 16.5q-78 0 -153 -23.5t-134 -66.5q-80 -55 -115 -137q-33 -77 -33 -192q0 -7 1 -13v8h-125v-238z" />
</font>
</defs>
</svg>
